<?xml version="1.0" encoding="UTF-8" standalone="no"?>
<!-- Created with Inkscape (http://www.inkscape.org/) -->

<svg
   xmlns:dc="http://purl.org/dc/elements/1.1/"
   xmlns:cc="http://creativecommons.org/ns#"
   xmlns:rdf="http://www.w3.org/1999/02/22-rdf-syntax-ns#"
   xmlns:svg="http://www.w3.org/2000/svg"
   xmlns="http://www.w3.org/2000/svg"
   xmlns:sodipodi="http://sodipodi.sourceforge.net/DTD/sodipodi-0.dtd"
   xmlns:inkscape="http://www.inkscape.org/namespaces/inkscape"
   width="32"
   height="32"
   viewBox="0 0 32 32"
   id="svg4171"
   version="1.1"
   inkscape:version="0.91 r13725"
   sodipodi:docname="Burger King.svg"
   inkscape:export-filename="/home/michael/src/bash/poi/icons/Burger King.png"
   inkscape:export-xdpi="109.69"
   inkscape:export-ydpi="109.69">
  <defs
     id="defs4173" />
  <sodipodi:namedview
     id="base"
     pagecolor="#ffffff"
     bordercolor="#666666"
     borderopacity="1.0"
     inkscape:pageopacity="0.0"
     inkscape:pageshadow="2"
     inkscape:zoom="23.59375"
     inkscape:cx="11.803974"
     inkscape:cy="15.915249"
     inkscape:document-units="px"
     inkscape:current-layer="layer1"
     showgrid="false"
     inkscape:window-width="1680"
     inkscape:window-height="986"
     inkscape:window-x="0"
     inkscape:window-y="27"
     inkscape:window-maximized="1"
     units="px" />
  <metadata
     id="metadata4176">
    <rdf:RDF>
      <cc:Work
         rdf:about="">
        <dc:format>image/svg+xml</dc:format>
        <dc:type
           rdf:resource="http://purl.org/dc/dcmitype/StillImage" />
        <dc:title />
      </cc:Work>
    </rdf:RDF>
  </metadata>
  <g
     inkscape:label="Ebene 1"
     inkscape:groupmode="layer"
     id="layer1"
     transform="translate(0,-1020.3622)">
    <rect
       style="opacity:1;fill:#ffffff;fill-opacity:1;stroke:#000000;stroke-width:1.99999976;stroke-linecap:butt;stroke-linejoin:round;stroke-miterlimit:4;stroke-dasharray:none;stroke-opacity:1"
       id="rect4179"
       width="30"
       height="30"
       x="1"
       y="1021.3622" />
    <g
       id="g4952"
       transform="matrix(0.10544296,0,0,0.10544296,2.6474972,1022.8572)">
      <path
         style="fill:#ffffff;fill-opacity:1;fill-rule:nonzero;stroke:none"
         id="bg_weiss"
         d="M 0,127.40177 C 0,57.024388 57.060875,0 127.4405,0 c 70.37962,0 127.41326,57.024388 127.41326,127.40177 0,70.37738 -57.03364,127.43402 -127.41326,127.43402 C 57.060875,254.83579 0,197.77915 0,127.40177"
         inkscape:connector-curvature="0" />
      <path
         style="fill:#0d4d84;fill-opacity:1;fill-rule:nonzero;stroke:none"
         id="blau"
         d="m 214.59793,162.13892 c -15.93347,35.83376 -46.52028,60.73355 -86.58547,61.31411 -29.19774,0.38703 -54.963648,-9.61158 -73.56631,-27.02853 l -11.24875,4.80579 0.02724,-17.41695 c -12.256513,-16.5461 -19.365301,-37.44645 -19.365301,-61.21736 0,-60.862567 46.601988,-108.823692 111.615991,-108.823692 10.59507,0 20.18238,1.644938 27.42735,3.289875 -11.13982,-3.5479 -22.22514,-5.483113 -34.53613,-5.483113 -69.753186,0 -116.709248,56.572826 -116.709248,114.88737 0,63.57187 49.870387,116.82258 115.320178,116.82258 62.53544,0 96.25448,-44.05843 107.04021,-70.57091 l -19.41976,-10.57917"
         inkscape:connector-curvature="0" />
      <g
         id="burger"
         transform="translate(-10.08875,-2.5e-6)">
        <path
           style="fill:#f6970f;fill-opacity:1;fill-rule:nonzero;stroke:none"
           id="burger_oben"
           d="m 194.29052,44.219703 c 0.54473,-1.3224 -0.57197,-2.644801 -0.57197,-2.644801 0,0 -8.6068,-14.643137 -39.05742,-17.8685 -16.31478,-1.741687 -38.51269,1.548176 -54.06484,9.934113 -28.189978,15.19145 -32.411678,40.220262 -32.411678,40.220262 -0.163412,0.612813 -0.435775,2.483525 0.190663,3.289863 0.653675,0.806338 1.606962,0.774088 2.750912,0.38705 9.968625,-3.354375 39.629393,-13.191737 58.341003,-18.158788 26.63748,-7.063537 48.50855,-11.353274 62.53545,-13.740037 1.00776,-0.193525 1.90657,-0.516062 2.28788,-1.419162"
           inkscape:connector-curvature="0" />
        <path
           style="fill:#f6970f;fill-opacity:1;fill-rule:nonzero;stroke:none"
           id="burger_unten"
           d="m 91.66265,192.71534 c -0.653675,1.48366 0.844337,2.96732 0.844337,2.96732 6.291675,7.93439 34.345473,17.96527 64.768863,10.61144 46.49304,-11.22425 56.29825,-44.09068 57.41496,-48.76746 0.21789,-0.93535 0.40855,-2.45127 -0.46302,-3.35438 -0.7354,-0.77408 -1.79763,-0.77408 -3.24118,-0.45155 -32.27547,7.57961 -85.98625,23.99669 -116.954372,37.25293 -1.334588,0.58056 -1.961038,0.77409 -2.369588,1.7417"
           inkscape:connector-curvature="0" />
      </g>
      <path
         style="fill:#ffffff;fill-opacity:1;fill-rule:nonzero;stroke:none"
         id="glanzstriche"
         d="m 96.77198,33.350238 c -17.077418,7.547338 -28.625768,25.5126 -29.252218,33.0922 -0.245125,3.031838 3.758663,3.483387 4.139975,0.258025 C 75.254988,52.831413 86.28585,39.768701 96.77198,33.350238 m 56.62508,12.901438 c 9.20601,-2.25775 14.27204,-2.612538 14.35375,-6.741 0.16341,-6.870025 -19.50147,-14.868913 -37.50494,-13.4175 18.35754,1.225637 29.36117,8.289175 29.41564,13.223974 0.0272,3.09635 -2.6692,5.837901 -6.26445,6.934526 m 5.69248,152.366064 c 13.83623,-5.45085 27.12775,-15.83651 34.48166,-31.38276 2.12446,-4.5155 -4.0038,-6.80552 -5.74695,-1.51592 -4.3034,11.06299 -13.15533,24.02894 -28.73471,32.89868"
         inkscape:connector-curvature="0" />
      <path
         style="fill:#b20c35;fill-opacity:1;fill-rule:nonzero;stroke:none"
         id="text"
         d="m 198.41933,149.59225 c 9.17877,-1.06436 15.52492,-4.74127 19.01121,-8.16016 3.1867,-3.1286 3.92208,-7.41833 3.92208,-10.61144 0.13619,-4.67677 0,-19.48119 0,-19.48119 l -24.2679,5.25736 c 0,0 0,1.83844 -0.0272,5.67662 0.0545,3.74143 1.8521,5.7734 5.80142,5.06383 1.22565,-0.19353 3.13222,-0.80634 3.13222,-0.80634 l 0.0272,4.64451 c -0.0272,-0.12901 0.35408,2.58029 -5.77417,3.77368 -8.00759,1.25788 -11.63008,-3.64467 -11.73902,-12.35314 0.16342,-9.35355 5.44734,-14.70764 11.84797,-16.19131 7.19048,-1.64494 11.27598,0.0645 13.67281,0.41929 8.03482,1.22564 10.32271,-10.83721 2.99604,-13.675535 -5.4201,-2.160987 -12.41993,-2.580287 -19.12017,-1.225637 -8.93362,1.77395 -26.47406,9.256792 -26.52853,33.543762 0.0545,19.28767 14.27202,25.57711 27.04604,24.1257 m -78.90472,20.67457 c 0,0 7.43563,-2.54803 8.0893,-2.7738 5.99208,-2.06424 8.17102,-5.64439 8.14378,-11.80483 -0.0817,-6.6765 -0.0817,-19.73921 -0.0817,-19.73921 l 17.32254,19.96499 c 2.80539,2.90282 6.31893,3.16085 9.56009,2.2255 3.32287,-0.99987 6.10101,-4.03171 6.18273,-8.35369 0.0272,-14.41736 0,-49.5738 0,-49.5738 0,0 -4.46682,0.93535 -8.19824,1.99972 -4.27617,1.19338 -7.54458,3.93494 -7.54458,11.12749 0,2.54804 -0.0272,17.15892 -0.0272,17.15892 0,0 -9.72351,-12.22411 -16.12413,-18.61033 -3.40459,-3.38663 -9.04259,-1.35465 -9.04259,-1.35465 l -8.30718,2.51578 0.0272,57.21791 m -5.25667,-55.92777 c 0,0 -5.20221,1.51593 -9.45114,3.0641 -5.52905,1.99973 -8.6885,5.19283 -8.6885,13.51426 0,7.67637 -0.02724,47.54183 -0.02724,47.54183 0,0 4.82089,-1.64494 9.34219,-3.32213 6.40062,-2.41902 8.79745,-5.70888 8.79745,-12.44988 0,-5.7734 0.0272,-48.34818 0.0272,-48.34818 m -25.874865,11.32103 c -4.793663,-2.19325 -8.9064,0.25802 -10.64955,2.93507 l -14.707812,25.0288 -0.02724,-20.19076 -17.349775,7.19256 -0.05447,57.05664 12.202037,-5.12833 c 0,0 2.396838,-0.67732 3.840375,-2.93507 1.334601,-2.09649 1.307363,-5.61212 1.307363,-5.61212 l 0,-18.09429 13.672825,14.48187 c 2.996037,3.1286 8.49785,4.70903 13.373215,0.77409 4.38511,-3.5479 3.70419,-9.57933 1.25288,-12.28863 L 78.795762,156.33327 c 0,0 10.94915,-17.25569 12.746778,-20.12627 2.36958,-3.83817 1.17117,-8.57946 -3.159465,-10.54692 m -34.372712,-7.70861 c -0.02724,-3.16087 -2.478538,-4.87031 -6.700226,-2.74157 l -0.02724,10.09539 c 0,0 1.361837,-0.61283 2.369588,-1.06437 2.478549,-1.16113 4.412349,-3.19312 4.357875,-6.28945 m -6.781938,-9.16003 c 0.735387,-0.29029 1.307363,-0.54831 1.933813,-0.8386 2.287874,-1.12888 3.922074,-3.19311 3.922074,-5.87016 0.02724,-3.031842 -2.478537,-3.83818 -5.855887,-2.06423 l 0,8.77299 z m 17.867275,7.70861 c 0.136187,7.96664 -5.610762,12.22411 -13.10085,15.32047 l -15.334263,6.51522 -0.02724,-41.542652 c 0,0 9.669025,-3.967188 12.828487,-5.096076 8.960875,-3.257611 14.21755,0.677339 14.21755,6.644251 0,3.999447 -1.715912,7.386077 -5.4201,10.385667 3.649713,0.61282 6.781938,3.6124 6.836413,7.77312 M 94.23896,81.408113 c 0,-3.483387 -2.42406,-4.418738 -5.338385,-3.58015 -2.342363,0.677325 -5.093263,1.7417 -5.093263,1.7417 l -0.02724,25.835137 c -0.02724,2.58029 -0.40855,5.80565 -3.59525,6.57974 -2.424063,0.61283 -3.568,-0.99986 -3.568,-3.58015 L 76.56235,87.278276 c 0,-3.515651 -2.424063,-4.580013 -5.3384,-3.612413 -3.2684,1.096625 -5.229438,1.870712 -5.229438,1.870712 0,0 0.02724,18.287805 0,25.609375 -0.05447,8.57947 5.883125,12.86919 14.898476,10.19214 7.925874,-2.35451 13.237022,-6.80551 13.345972,-18.22329 l 0,-21.706687 m 85.22363,10.67595 c 2.31511,-0.483801 3.73142,-2.096488 3.73142,-4.90255 0,-2.515788 0,-4.451 0,-4.451 l -12.41994,2.741562 0,-7.321575 c 0,0 6.10103,-1.290149 7.81694,-1.677187 2.12446,-0.45155 3.24117,-1.612675 3.24117,-4.06395 0,-2.257763 -0.0272,-4.225225 -0.0272,-4.225225 l -11.03087,2.354513 0,-5.805651 c 0,0 5.74696,-1.193387 8.8247,-1.838462 2.39683,-0.51605 3.21393,-2.160987 3.21393,-4.451 0,-1.451412 0,-4.386488 0,-4.386488 -5.47457,0.967613 -15.93346,3.0641 -22.47028,4.547763 l -0.0817,37.898 c 0,0 12.3927,-2.935087 19.20188,-4.41875 M 107.585,90.568138 c 0,0 6.15549,-3.1931 6.07377,-8.224664 -0.0545,-4.321986 -4.03102,-3.354373 -6.07377,-2.612548 l 0,10.837212 z m 0,5.837913 c 0,0 -0.0272,7.257059 -0.0272,10.192139 -0.0272,2.74156 -1.90657,4.70903 -4.27616,5.64439 0,0.0645 0,-0.0968 0,0 -1.98828,0.67732 -6.18274,2.09647 -6.18274,2.09647 l 0,-38.994612 c 0,0 8.71575,-3.031837 13.83625,-4.225225 7.95311,-1.83845 13.61835,1.77395 13.5094,8.192412 -0.0545,6.128188 -3.45906,9.837363 -6.53681,12.385387 l 6.72746,6.450726 c 2.07,1.999732 2.23341,5.644392 -0.10894,7.837622 -1.36183,1.29016 -5.06602,2.64481 -7.95312,-0.32252 l -8.9881,-9.256789 m 88.08347,-26.835013 c 0,0 6.07378,-2.29 5.99208,-7.1603 -0.0545,-4.096213 -4.11275,-3.354375 -6.01931,-2.935075 l 0.0272,10.095375 z m -10.18652,21.38415 0.0272,-37.414187 c 0,0 10.92191,-1.935225 13.72728,-2.290013 7.84418,-0.999862 13.10085,3.354375 12.99192,9.514813 -0.0545,5.450862 -3.45907,8.708475 -6.34615,10.67595 0,0 5.31115,5.999175 6.72746,7.5796 1.9338,2.128737 1.85209,5.805648 -0.98053,7.579599 -2.80537,1.773951 -5.55628,0.838588 -7.16325,-0.935362 l -8.79745,-10.2889 c 0,0 0.0272,6.321713 0.0272,9.095525 -0.0272,2.74155 -1.63421,4.773525 -4.49406,5.3541 l -5.7197,1.128875 m -27.67249,-15.707513 -15.49767,3.515651 c 0,0 0,1.644924 -0.0272,4.321975 0.0272,1.999725 1.44354,3.289875 3.45906,2.870575 1.28013,-0.258026 2.28788,-0.483801 2.28788,-0.483801 l 0.0272,4.289725 c 0.0272,1.709438 -2.53301,2.838326 -5.17497,2.773813 -3.73143,-0.09676 -5.77417,-2.999587 -5.85589,-8.4827 0.13619,-7.224812 3.54078,-11.482287 8.17101,-12.643412 2.31512,-0.612826 4.41234,-0.322538 6.04655,-0.09676 3.97656,0.645075 6.29168,-1.29015 6.37339,-4.580013 0.0817,-3.547899 -3.05051,-5.741149 -9.77797,-5.483112 -14.59888,0.4838 -22.06173,10.966225 -22.06173,23.480625 0,12.804687 8.3889,18.481329 18.60266,16.610609 5.77418,-1.16113 8.63403,-3.031834 10.62232,-4.773535 1.98827,-1.741699 2.80537,-4.354237 2.80537,-6.579737 l 0,-14.7399 m 70.16173,78.763322 1.5525,0 c 0.84434,0 1.9338,0.16126 1.9338,1.16113 0,1.12887 -0.78987,1.29015 -1.85209,1.29015 l -1.63421,0 0,-2.45128 z m -1.85209,7.86988 1.85209,0 0,-3.96719 1.14395,0 2.28787,3.96719 1.93381,0 -2.50577,-4.06395 c 1.38906,-0.12902 2.4513,-0.77409 2.4513,-2.48353 0,-2.03198 -1.30736,-2.77381 -3.64971,-2.77381 l -3.51354,0 0,9.32129 z m -5.25669,-4.64452 c 0,5.09607 4.05828,8.35369 8.57956,8.35369 4.52129,0 8.55233,-3.25762 8.55233,-8.35369 0,-5.06382 -4.03104,-8.32143 -8.55233,-8.32143 -4.52128,0 -8.57956,3.25761 -8.57956,8.32143 m 2.28789,0 c 0,-3.80592 2.77814,-6.54748 6.29167,-6.54748 3.45907,0 6.29168,2.74156 6.29168,6.54748 0,3.80593 -2.83261,6.57974 -6.29168,6.57974 -3.51353,0 -6.29167,-2.77381 -6.29167,-6.57974"
         inkscape:connector-curvature="0" />
    </g>
  </g>
</svg>
