<?xml version="1.0" encoding="UTF-8" standalone="no"?>
<!-- Created with Inkscape (http://www.inkscape.org/) -->

<svg
   xmlns:dc="http://purl.org/dc/elements/1.1/"
   xmlns:cc="http://creativecommons.org/ns#"
   xmlns:rdf="http://www.w3.org/1999/02/22-rdf-syntax-ns#"
   xmlns:svg="http://www.w3.org/2000/svg"
   xmlns="http://www.w3.org/2000/svg"
   xmlns:sodipodi="http://sodipodi.sourceforge.net/DTD/sodipodi-0.dtd"
   xmlns:inkscape="http://www.inkscape.org/namespaces/inkscape"
   width="32"
   height="32"
   viewBox="0 0 32 32"
   id="svg4171"
   version="1.1"
   inkscape:version="0.91 r13725"
   sodipodi:docname="Ice cream.svg"
   inkscape:export-filename="/home/michael/src/bash/poi/icons/Ice cream.png"
   inkscape:export-xdpi="109.69"
   inkscape:export-ydpi="109.69">
  <defs
     id="defs4173" />
  <sodipodi:namedview
     id="base"
     pagecolor="#ffffff"
     bordercolor="#666666"
     borderopacity="1.0"
     inkscape:pageopacity="0.0"
     inkscape:pageshadow="2"
     inkscape:zoom="23.59375"
     inkscape:cx="4.9377483"
     inkscape:cy="15.915249"
     inkscape:document-units="px"
     inkscape:current-layer="layer1"
     showgrid="false"
     inkscape:window-width="1440"
     inkscape:window-height="863"
     inkscape:window-x="1680"
     inkscape:window-y="98"
     inkscape:window-maximized="1"
     units="px" />
  <metadata
     id="metadata4176">
    <rdf:RDF>
      <cc:Work
         rdf:about="">
        <dc:format>image/svg+xml</dc:format>
        <dc:type
           rdf:resource="http://purl.org/dc/dcmitype/StillImage" />
        <dc:title />
      </cc:Work>
    </rdf:RDF>
  </metadata>
  <g
     inkscape:label="Ebene 1"
     inkscape:groupmode="layer"
     id="layer1"
     transform="translate(0,-1020.3622)">
    <rect
       style="opacity:1;fill:#ffffff;fill-opacity:1;stroke:#000000;stroke-width:1.99999976;stroke-linecap:butt;stroke-linejoin:round;stroke-miterlimit:4;stroke-dasharray:none;stroke-opacity:1"
       id="rect4179"
       width="30"
       height="30"
       x="1"
       y="1021.3622" />
    <g
       id="g3836"
       transform="matrix(0.05842597,0,0,0.05842597,4.818277,1024.7889)">
      <g
         id="g3624">
        <g
           id="g3626">
          <path
             id="path3628"
             d="m 249.564,130.958 c 0.729,0.447 1.436,0.924 2.119,1.433 -0.684,-0.509 -1.39,-0.987 -2.119,-1.433 z"
             style="fill:#ef8829"
             inkscape:connector-curvature="0" />
          <path
             id="path3630"
             d="m 242.78,127.953 c 2.136,0.619 4.167,1.483 6.061,2.566 -1.895,-1.082 -3.925,-1.947 -6.061,-2.566 z"
             style="fill:#ef8829"
             inkscape:connector-curvature="0" />
          <path
             id="path3632"
             d="m 259.139,140.688 c -4.147,-2.427 -8.965,-3.828 -14.108,-3.828 -15.07,0 -27.394,11.96 -27.992,26.886 -0.113,-0.077 -0.242,-0.147 -0.357,-0.224 2.106,1.39 3.925,2.894 5.589,4.29 4.151,3.482 6.893,5.782 13.148,5.782 6.253,0 8.996,-2.3 13.147,-5.782 3.529,-2.96 7.687,-6.428 14.044,-8.173 0.27,-1.572 0.415,-3.17 0.415,-4.785 -10e-4,-5.171 -1.434,-10.003 -3.886,-14.166 z"
             style="fill:#ef8829"
             inkscape:connector-curvature="0" />
          <path
             id="path3634"
             d="m 257.415,138.105 c 0.536,0.716 1.039,1.459 1.506,2.226 -0.467,-0.768 -0.969,-1.509 -1.506,-2.226 z"
             style="fill:#ef8829"
             inkscape:connector-curvature="0" />
          <path
             id="path3636"
             d="m 256.983,137.529 c -1.365,-1.728 -2.925,-3.288 -4.653,-4.654 1.727,1.365 3.289,2.926 4.653,4.654 z"
             style="fill:#ef8829"
             inkscape:connector-curvature="0" />
          <path
             id="path3638"
             d="m 235.003,126.832 c 1.161,0 2.299,0.093 3.423,0.231 -1.124,-0.138 -2.262,-0.231 -3.423,-0.231 z"
             style="fill:#ef8829"
             inkscape:connector-curvature="0" />
          <path
             id="path3640"
             d="m 210.001,160.186 c 0.274,0.095 0.526,0.204 0.791,0.305 -0.265,-0.1 -0.517,-0.21 -0.791,-0.305 z"
             style="fill:#ef8829"
             inkscape:connector-curvature="0" />
          <path
             id="path3642"
             d="m 212.418,161.154 c 0.284,0.128 0.554,0.265 0.828,0.401 -0.274,-0.135 -0.544,-0.272 -0.828,-0.401 z"
             style="fill:#ef8829"
             inkscape:connector-curvature="0" />
          <path
             id="path3644"
             d="m 214.634,162.276 c 0.257,0.143 0.508,0.29 0.756,0.438 -0.249,-0.149 -0.499,-0.294 -0.756,-0.438 z"
             style="fill:#ef8829"
             inkscape:connector-curvature="0" />
          <path
             id="path3646"
             d="m 239.411,127.214 c 0.827,0.132 1.642,0.298 2.443,0.501 -0.803,-0.203 -1.616,-0.37 -2.443,-0.501 z"
             style="fill:#ef8829"
             inkscape:connector-curvature="0" />
        </g>
        <g
           id="g3648">
          <path
             id="path3650"
             d="m 163.921,126.832 c 1.161,0 2.299,0.093 3.423,0.231 -1.125,-0.138 -2.263,-0.231 -3.423,-0.231 z"
             style="fill:#ef8829"
             inkscape:connector-curvature="0" />
          <path
             id="path3652"
             d="m 178.482,130.959 c 0.728,0.446 1.435,0.923 2.117,1.431 -0.683,-0.509 -1.388,-0.985 -2.117,-1.431 z"
             style="fill:#ef8829"
             inkscape:connector-curvature="0" />
          <path
             id="path3654"
             d="m 185.901,137.53 c -1.365,-1.729 -2.926,-3.29 -4.654,-4.655 1.728,1.366 3.29,2.927 4.654,4.655 z"
             style="fill:#ef8829"
             inkscape:connector-curvature="0" />
          <path
             id="path3656"
             d="m 171.697,127.953 c 2.136,0.619 4.166,1.483 6.06,2.565 -1.895,-1.082 -3.923,-1.946 -6.06,-2.565 z"
             style="fill:#ef8829"
             inkscape:connector-curvature="0" />
          <path
             id="path3658"
             d="m 186.331,138.104 c 0.537,0.717 1.04,1.461 1.508,2.228 -0.468,-0.768 -0.97,-1.51 -1.508,-2.228 z"
             style="fill:#ef8829"
             inkscape:connector-curvature="0" />
          <path
             id="path3660"
             d="m 138.894,160.494 c 0.256,0.097 0.497,0.205 0.746,0.308 -0.249,-0.103 -0.489,-0.211 -0.746,-0.308 z"
             style="fill:#ef8829"
             inkscape:connector-curvature="0" />
          <path
             id="path3662"
             d="m 188.056,140.688 c -4.147,-2.427 -8.965,-3.828 -14.108,-3.828 -15.263,0 -27.705,12.269 -28.006,27.461 -0.006,-0.005 -0.013,-0.008 -0.019,-0.013 1.628,1.16 3.079,2.369 4.433,3.505 4.15,3.482 6.893,5.782 13.146,5.782 6.251,0 8.993,-2.3 13.143,-5.782 3.692,-3.097 8.06,-6.76 14.929,-8.413 0.243,-1.494 0.367,-3.013 0.367,-4.547 0,-5.17 -1.433,-10.002 -3.885,-14.165 z"
             style="fill:#ef8829"
             inkscape:connector-curvature="0" />
          <path
             id="path3664"
             d="m 141.272,161.53 c 0.249,0.122 0.495,0.246 0.736,0.372 -0.242,-0.127 -0.487,-0.25 -0.736,-0.372 z"
             style="fill:#ef8829"
             inkscape:connector-curvature="0" />
          <path
             id="path3666"
             d="m 168.328,127.214 c 0.827,0.132 1.641,0.298 2.442,0.5 -0.802,-0.202 -1.615,-0.369 -2.442,-0.5 z"
             style="fill:#ef8829"
             inkscape:connector-curvature="0" />
          <path
             id="path3668"
             d="m 143.517,162.747 c 0.188,0.112 0.381,0.221 0.564,0.336 -0.184,-0.114 -0.376,-0.223 -0.564,-0.336 z"
             style="fill:#ef8829"
             inkscape:connector-curvature="0" />
        </g>
        <g
           id="g3670">
          <path
             id="path3672"
             d="m 176.645,192.174 c 0.529,-0.444 1.08,-0.902 1.642,-1.361 -0.563,0.46 -1.112,0.916 -1.642,1.361 z"
             style="fill:#84bd93"
             inkscape:connector-curvature="0" />
          <path
             id="path3674"
             d="m 178.982,190.26 c 0.378,-0.301 0.767,-0.602 1.165,-0.902 -0.399,0.301 -0.786,0.6 -1.165,0.902 z"
             style="fill:#84bd93"
             inkscape:connector-curvature="0" />
          <path
             id="path3676"
             d="m 176.645,192.174 c -0.782,0.656 -1.503,1.25 -2.217,1.814 0.713,-0.564 1.437,-1.16 2.217,-1.814 z"
             style="fill:#84bd93"
             inkscape:connector-curvature="0" />
          <path
             id="path3678"
             d="m 181.041,188.703 c 0.374,-0.268 0.767,-0.529 1.162,-0.79 -0.396,0.261 -0.786,0.521 -1.162,0.79 z"
             style="fill:#84bd93"
             inkscape:connector-curvature="0" />
          <path
             id="path3680"
             d="m 183.202,187.264 c 0.53,-0.324 1.093,-0.631 1.663,-0.934 -0.571,0.303 -1.133,0.611 -1.663,0.934 z"
             style="fill:#84bd93"
             inkscape:connector-curvature="0" />
          <path
             id="path3682"
             d="m 167.492,194.838 c -11.727,0 -17.874,-5.156 -22.813,-9.301 -4.15,-3.481 -6.892,-5.782 -13.144,-5.782 -2.013,0 -3.715,1.29 -4.366,3.081 -0.894,-0.072 -1.718,-0.396 -2.4,-0.9 0.778,0.581 1.732,0.938 2.775,0.938 11.725,0 17.872,5.156 22.811,9.299 4.15,3.481 6.892,5.782 13.146,5.782 4.924,0 7.676,-1.441 10.648,-3.749 -2.005,0.395 -4.203,0.632 -6.657,0.632 z"
             style="fill:#84bd93"
             inkscape:connector-curvature="0" />
          <path
             id="path3684"
             d="m 123.087,179.498 c -0.036,-0.123 -0.084,-0.242 -0.11,-0.37 0.025,0.128 0.074,0.246 0.11,0.37 z"
             style="fill:#84bd93"
             inkscape:connector-curvature="0" />
          <path
             id="path3686"
             d="m 123.483,180.454 c -0.088,-0.159 -0.18,-0.315 -0.25,-0.484 0.07,0.17 0.162,0.325 0.25,0.484 z"
             style="fill:#84bd93"
             inkscape:connector-curvature="0" />
          <path
             id="path3688"
             d="m 124.048,181.262 c -0.149,-0.169 -0.292,-0.345 -0.416,-0.535 0.123,0.191 0.267,0.365 0.416,0.535 z"
             style="fill:#84bd93"
             inkscape:connector-curvature="0" />
          <path
             id="path3690"
             d="m 124.15,181.386 c 0.181,0.193 0.38,0.366 0.591,0.526 -0.212,-0.159 -0.41,-0.335 -0.591,-0.526 z"
             style="fill:#84bd93"
             inkscape:connector-curvature="0" />
          <path
             id="path3692"
             d="m 190.795,184 c -0.531,0.144 -1.045,0.299 -1.546,0.466 0.5,-0.167 1.016,-0.322 1.546,-0.466 z"
             style="fill:#84bd93"
             inkscape:connector-curvature="0" />
          <path
             id="path3694"
             d="m 275.745,179.794 c -0.126,-0.011 -0.247,-0.038 -0.375,-0.038 -4.936,0 -7.686,1.437 -10.666,3.754 -0.177,0.035 -0.333,0.087 -0.507,0.125 2.148,-0.464 4.504,-0.759 7.183,-0.759 2.287,0 4.185,-1.658 4.577,-3.834 -0.052,0.257 -0.124,0.508 -0.212,0.752 z"
             style="fill:#84bd93"
             inkscape:connector-curvature="0" />
          <path
             id="path3696"
             d="m 239.409,194.838 c -11.728,0 -17.874,-5.156 -22.815,-9.3 -3.825,-3.209 -6.461,-5.41 -11.743,-5.736 -0.099,-0.004 -2.671,-0.009 -2.74,-0.004 -4.115,0.241 -6.627,1.615 -9.327,3.712 -0.176,0.035 -0.33,0.087 -0.503,0.124 2.147,-0.464 4.5,-0.759 7.177,-0.759 11.727,0 17.873,5.156 22.813,9.299 4.152,3.481 6.894,5.782 13.149,5.782 4.927,0 7.679,-1.442 10.653,-3.75 -2.009,0.394 -4.207,0.632 -6.664,0.632 z"
             style="fill:#84bd93"
             inkscape:connector-curvature="0" />
          <path
             id="path3698"
             d="m 259.825,184.934 c -0.52,0.202 -1.01,0.424 -1.499,0.648 0.489,-0.224 0.98,-0.446 1.499,-0.648 z"
             style="fill:#84bd93"
             inkscape:connector-curvature="0" />
          <path
             id="path3700"
             d="m 262.72,183.999 c -0.534,0.145 -1.05,0.3 -1.554,0.468 0.503,-0.168 1.021,-0.324 1.554,-0.468 z"
             style="fill:#84bd93"
             inkscape:connector-curvature="0" />
          <path
             id="path3702"
             d="m 252.96,188.705 c 0.376,-0.269 0.771,-0.532 1.167,-0.794 -0.398,0.262 -0.791,0.524 -1.167,0.794 z"
             style="fill:#84bd93"
             inkscape:connector-curvature="0" />
          <path
             id="path3704"
             d="m 250.896,190.265 c 0.381,-0.304 0.774,-0.607 1.175,-0.91 -0.402,0.303 -0.792,0.605 -1.175,0.91 z"
             style="fill:#84bd93"
             inkscape:connector-curvature="0" />
          <path
             id="path3706"
             d="m 187.904,184.934 c -0.518,0.201 -1.007,0.423 -1.494,0.646 0.486,-0.223 0.976,-0.444 1.494,-0.646 z"
             style="fill:#84bd93"
             inkscape:connector-curvature="0" />
          <path
             id="path3708"
             d="m 255.122,187.265 c 0.534,-0.327 1.101,-0.636 1.676,-0.941 -0.576,0.304 -1.141,0.614 -1.676,0.941 z"
             style="fill:#84bd93"
             inkscape:connector-curvature="0" />
          <path
             id="path3710"
             d="m 248.566,192.174 c -0.781,0.655 -1.502,1.248 -2.215,1.812 0.712,-0.564 1.436,-1.159 2.215,-1.812 z"
             style="fill:#84bd93"
             inkscape:connector-curvature="0" />
          <path
             id="path3712"
             d="m 248.566,192.174 c 0.53,-0.445 1.083,-0.904 1.646,-1.364 -0.565,0.46 -1.115,0.918 -1.646,1.364 z"
             style="fill:#84bd93"
             inkscape:connector-curvature="0" />
        </g>
        <path
           id="path3714"
           d="m 207.952,365.556 c -3.301,-8 -4.61,-15.811 -4.795,-23.304 -0.246,-0.017 -0.49,-0.344 -0.734,-0.366 0.242,-0.021 0.488,-0.187 0.729,-0.214 -1.212,0.133 -2.443,0.133 -3.691,0.133 0.75,0 1.492,0.536 2.229,0.485 -0.186,7.494 -1.494,15.266 -4.795,23.266 l 11.057,0 z"
           style="fill:#84bd93"
           inkscape:connector-curvature="0" />
        <path
           id="path3716"
           d="m 232.604,378.556 -57.668,0 c -1.242,0 -2.252,1.259 -2.252,2.501 0,1.241 1.01,2.499 2.252,2.499 l 57.668,0 c 1.242,0 2.252,-1.258 2.252,-2.499 0,-1.241 -1.01,-2.501 -2.252,-2.501 z"
           style="fill:#84bd93"
           inkscape:connector-curvature="0" />
        <g
           id="g3718">
          <path
             id="path3720"
             d="m 241.96,212.806 c -0.486,-0.049 -0.957,-0.111 -1.422,-0.178 0.575,-0.086 1.138,-0.181 1.682,-0.292 -2.044,0.413 -4.288,0.661 -6.802,0.661 -11.727,0 -17.875,-5.156 -22.814,-9.299 -2.818,-2.363 -5.009,-4.159 -8.067,-5.084 -3.029,0.93 -5.194,2.735 -7.994,5.084 -4.939,4.143 -11.085,9.299 -22.811,9.299 -1.843,0 -3.54,-0.135 -5.12,-0.369 0.465,-0.068 0.882,-0.176 1.327,-0.261 -1.958,0.374 -4.057,0.63 -6.438,0.63 1.301,0 2.523,-0.073 3.693,-0.192 21.371,38.22 24.041,92.275 24.17,95.232 0.002,0.052 0.283,14.918 13.214,18.06 13.369,-3.082 13.21,-18.008 13.212,-18.06 0.13,-2.968 2.818,-57.456 24.43,-95.701 -0.088,0.155 -0.172,0.314 -0.26,0.47 z"
             style="fill:#84bd93"
             inkscape:connector-curvature="0" />
          <path
             id="path3722"
             d="m 203.611,326.296 c -0.388,0.071 -0.766,0.15 -1.176,0.201 0.411,-0.049 0.786,-0.131 1.176,-0.201 z"
             style="fill:#84bd93"
             inkscape:connector-curvature="0" />
          <path
             id="path3724"
             d="m 199.457,197.916 c 0.924,0 1.754,0.064 2.54,0.162 -0.787,-0.097 -1.616,-0.162 -2.54,-0.162 z"
             style="fill:#84bd93"
             inkscape:connector-curvature="0" />
          <path
             id="path3726"
             d="m 202.63,198.179 c 0.567,0.093 1.109,0.207 1.619,0.35 -0.51,-0.142 -1.053,-0.257 -1.619,-0.35 z"
             style="fill:#84bd93"
             inkscape:connector-curvature="0" />
          <path
             id="path3728"
             d="m 184.61,205.109 c 0.586,-0.477 1.153,-0.95 1.703,-1.411 -0.549,0.46 -1.119,0.934 -1.703,1.411 z"
             style="fill:#84bd93"
             inkscape:connector-curvature="0" />
          <path
             id="path3730"
             d="m 182.723,206.582 c 0.399,-0.299 0.78,-0.597 1.16,-0.898 -0.379,0.3 -0.763,0.599 -1.16,0.898 z"
             style="fill:#84bd93"
             inkscape:connector-curvature="0" />
          <path
             id="path3732"
             d="m 178.383,209.378 c 0.379,-0.206 0.757,-0.412 1.118,-0.628 -0.359,0.215 -0.739,0.421 -1.118,0.628 z"
             style="fill:#84bd93"
             inkscape:connector-curvature="0" />
          <path
             id="path3734"
             d="m 180.659,208.023 c 0.37,-0.243 0.73,-0.487 1.083,-0.737 -0.351,0.25 -0.713,0.494 -1.083,0.737 z"
             style="fill:#84bd93"
             inkscape:connector-curvature="0" />
          <path
             id="path3736"
             d="m 171.608,212.039 c 0.566,-0.141 1.083,-0.32 1.617,-0.487 -0.533,0.167 -1.051,0.346 -1.617,0.487 z"
             style="fill:#84bd93"
             inkscape:connector-curvature="0" />
          <path
             id="path3738"
             d="m 175.852,210.592 c 0.404,-0.172 0.819,-0.336 1.204,-0.521 -0.384,0.186 -0.8,0.349 -1.204,0.521 z"
             style="fill:#84bd93"
             inkscape:connector-curvature="0" />
        </g>
        <g
           id="g3740">
          <path
             id="path3742"
             d="m 203.567,43.507 c 0.047,0.019 0.096,0.033 0.142,0.053 -0.047,-0.02 -0.096,-0.033 -0.142,-0.053 z"
             style="fill:#ce593f"
             inkscape:connector-curvature="0" />
          <path
             id="path3744"
             d="m 201.403,42.884 c 0.163,0.03 0.324,0.063 0.484,0.1 -0.16,-0.037 -0.32,-0.07 -0.484,-0.1 z"
             style="fill:#ce593f"
             inkscape:connector-curvature="0" />
          <path
             id="path3746"
             d="m 189.071,56.355 c -0.066,-0.24 -0.163,-0.468 -0.213,-0.715 0.05,0.247 0.147,0.473 0.213,0.715 z"
             style="fill:#ce593f"
             inkscape:connector-curvature="0" />
          <path
             id="path3748"
             d="m 208.233,47.221 c 0.128,0.179 0.249,0.362 0.366,0.548 -0.118,-0.187 -0.238,-0.368 -0.366,-0.548 z"
             style="fill:#ce593f"
             inkscape:connector-curvature="0" />
          <path
             id="path3750"
             d="m 189.891,58.443 c -0.142,-0.273 -0.306,-0.533 -0.424,-0.819 0.118,0.287 0.282,0.546 0.424,0.819 z"
             style="fill:#ce593f"
             inkscape:connector-curvature="0" />
          <path
             id="path3752"
             d="m 207.233,46.01 c -0.112,-0.116 -0.231,-0.223 -0.348,-0.334 0.117,0.111 0.236,0.218 0.348,0.334 z"
             style="fill:#ce593f"
             inkscape:connector-curvature="0" />
          <path
             id="path3754"
             d="m 205.268,44.408 c 0.162,0.104 0.32,0.213 0.476,0.325 -0.156,-0.112 -0.313,-0.22 -0.476,-0.325 z"
             style="fill:#ce593f"
             inkscape:connector-curvature="0" />
          <path
             id="path3756"
             d="m 196.105,63.739 c -0.389,-0.128 -0.777,-0.256 -1.145,-0.425 0.368,0.17 0.755,0.296 1.145,0.425 z"
             style="fill:#ce593f"
             inkscape:connector-curvature="0" />
          <path
             id="path3758"
             d="m 191.056,60.233 c -0.215,-0.268 -0.444,-0.523 -0.633,-0.811 0.189,0.289 0.417,0.543 0.633,0.811 z"
             style="fill:#ce593f"
             inkscape:connector-curvature="0" />
          <path
             id="path3760"
             d="m 208.783,47.349 c -0.232,-0.016 -0.463,-0.793 -0.699,-0.793 -0.005,0 -0.009,0 -0.014,0 0,0 -0.004,0 -0.006,0 -5.96,0 -10.805,5.617 -10.805,11.577 0,1.95 0.529,4.154 1.436,5.736 0.258,0.018 0.504,0.267 0.767,0.267 5.966,0 10.82,-5.138 10.82,-11.103 0,-1.975 -0.571,-4.088 -1.499,-5.684 z"
             style="fill:#ce593f"
             inkscape:connector-curvature="0" />
          <path
             id="path3762"
             d="m 198.138,64.192 c -0.418,-0.052 -0.834,-0.107 -1.235,-0.205 0.402,0.098 0.816,0.153 1.235,0.205 z"
             style="fill:#ce593f"
             inkscape:connector-curvature="0" />
          <path
             id="path3764"
             d="m 194.217,62.91 c -0.344,-0.192 -0.689,-0.38 -1.009,-0.607 0.32,0.228 0.664,0.414 1.009,0.607 z"
             style="fill:#ce593f"
             inkscape:connector-curvature="0" />
          <path
             id="path3766"
             d="m 191.684,60.993 c 0.258,0.268 0.548,0.498 0.833,0.739 -0.285,-0.24 -0.576,-0.471 -0.833,-0.739 z"
             style="fill:#ce593f"
             inkscape:connector-curvature="0" />
        </g>
        <g
           id="g3768">
          <path
             id="path3770"
             d="m 201.12,101.974 c -0.253,0.155 -0.511,0.3 -0.783,0.425 0.271,-0.126 0.53,-0.27 0.783,-0.425 z"
             style="fill:#fdd44b"
             inkscape:connector-curvature="0" />
          <path
             id="path3772"
             d="m 199.891,102.584 c -0.287,0.111 -0.584,0.201 -0.887,0.275 0.303,-0.074 0.599,-0.164 0.887,-0.275 z"
             style="fill:#fdd44b"
             inkscape:connector-curvature="0" />
          <path
             id="path3774"
             d="m 201.502,101.74 c 0.342,-0.239 0.666,-0.502 0.963,-0.794 -0.297,0.291 -0.621,0.555 -0.963,0.794 z"
             style="fill:#fdd44b"
             inkscape:connector-curvature="0" />
          <path
             id="path3776"
             d="m 235.641,102.556 -16.899,0 c -4.154,0 -7.521,-3.095 -7.521,-7.248 0,-2.575 1.297,-5.126 3.27,-6.482 -0.007,0.005 -0.016,-0.269 -0.023,-0.269 l -12.989,0 c -0.008,0 -0.016,0.411 -0.024,0.406 1.973,1.355 3.27,3.834 3.27,6.409 0,0.948 -0.195,1.686 -0.515,2.521 0.023,-0.06 0.056,1.664 0.078,-0.336 l 2.944,0 c 4.154,0 7.521,3.346 7.521,7.5 0,4.154 -3.367,7.5 -7.521,7.5 l -32.647,0 c 9.95,2 18.509,8.866 24.333,16.987 0.238,0.17 0.467,0.878 0.702,1.053 7.783,-11.206 20.735,-18.04 35.383,-18.04 0.142,0 0.565,0 0.637,0 2.396,0 4.345,-2.604 4.345,-5 10e-4,-2.397 -1.948,-5.001 -4.344,-5.001 z"
             style="fill:#fdd44b"
             inkscape:connector-curvature="0" />
          <path
             id="path3778"
             d="m 197.205,103.101 c 0.474,0 0.933,-0.055 1.382,-0.14 -0.45,0.084 -0.909,0.14 -1.382,0.14 z"
             style="fill:#fdd44b"
             inkscape:connector-curvature="0" />
          <path
             id="path3780"
             d="m 203.297,99.96 c -0.161,0.224 -0.341,0.433 -0.526,0.637 0.184,-0.205 0.365,-0.412 0.526,-0.637 z"
             style="fill:#fdd44b"
             inkscape:connector-curvature="0" />
          <path
             id="path3782"
             d="m 166.66,111.877 c -0.906,-0.057 -1.819,-0.086 -2.739,-0.086 0.92,0 1.833,0.029 2.739,0.086 z"
             style="fill:#fdd44b"
             inkscape:connector-curvature="0" />
          <path
             id="path3784"
             d="m 214.771,89.216 c 0.279,-0.175 0.568,-0.335 0.87,-0.472 -0.303,0.138 -0.591,0.298 -0.87,0.472 z"
             style="fill:#fdd44b"
             inkscape:connector-curvature="0" />
          <path
             id="path3786"
             d="m 217.374,88.197 c 0.445,-0.082 0.9,-0.138 1.368,-0.138 -0.469,0 -0.923,0.056 -1.368,0.138 z"
             style="fill:#fdd44b"
             inkscape:connector-curvature="0" />
          <path
             id="path3788"
             d="m 201.177,89.217 c -0.28,-0.175 -0.569,-0.335 -0.871,-0.473 0.303,0.138 0.592,0.298 0.871,0.473 z"
             style="fill:#fdd44b"
             inkscape:connector-curvature="0" />
          <path
             id="path3790"
             d="m 203.957,98.834 c -0.103,0.212 -0.215,0.418 -0.336,0.619 0.122,-0.201 0.233,-0.406 0.336,-0.619 z"
             style="fill:#fdd44b"
             inkscape:connector-curvature="0" />
          <path
             id="path3792"
             d="m 216.073,88.57 c 0.286,-0.109 0.581,-0.2 0.883,-0.274 -0.302,0.074 -0.596,0.164 -0.883,0.274 z"
             style="fill:#fdd44b"
             inkscape:connector-curvature="0" />
          <path
             id="path3794"
             d="m 199.873,88.57 c -0.286,-0.11 -0.58,-0.2 -0.883,-0.274 0.302,0.074 0.597,0.164 0.883,0.274 z"
             style="fill:#fdd44b"
             inkscape:connector-curvature="0" />
          <path
             id="path3796"
             d="m 198.573,88.197 c -0.445,-0.082 -0.899,-0.138 -1.368,-0.138 0.468,0 0.923,0.056 1.368,0.138 z"
             style="fill:#fdd44b"
             inkscape:connector-curvature="0" />
        </g>
        <path
           id="path3798"
           d="m 277.799,159.608 c 0.172,-1.573 0.266,-3.159 0.266,-4.755 0,-17.279 -10.234,-32.205 -24.956,-39.058 1.216,-2.532 1.917,-5.358 1.917,-8.35 0,-10.024 -7.647,-18.295 -17.413,-19.287 0.336,-1.429 0.514,-2.916 0.514,-4.446 0,-9.317 -6.606,-17.114 -15.379,-18.966 1.649,-3.4 2.574,-7.214 2.574,-11.24 0,-11.781 -7.921,-21.74 -18.715,-24.849 0.194,-4.359 1.429,-10.763 6.311,-16.02 2.826,-3.043 2.65,-7.802 -0.394,-10.628 -3.044,-2.828 -7.803,-2.65 -10.629,0.393 -8.289,8.925 -10.157,19.47 -10.329,26.479 -10.408,3.346 -17.964,13.119 -17.964,24.626 0,4.026 0.925,7.84 2.574,11.24 -8.773,1.853 -15.38,9.65 -15.38,18.966 0,1.53 0.178,3.017 0.514,4.446 -9.766,0.992 -17.413,9.263 -17.413,19.287 0,2.993 0.701,5.818 1.918,8.35 -14.721,6.853 -24.956,21.779 -24.956,39.058 0,1.595 0.094,3.182 0.266,4.755 -7.716,2.67 -13.282,9.992 -13.282,18.607 0,9.98 7.466,18.231 17.103,19.509 36.956,26.099 41.122,110.115 41.159,110.973 0,0.008 0.002,0.016 0.002,0.023 0.118,11.23 5.811,21.145 14.439,27.107 0.34,7.535 0.04,24.792 -9.323,28.51 l -4.903,0 c -9.536,0 -17.294,7.758 -17.294,17.294 0,9.535 7.758,17.292 17.294,17.292 l 66.285,0 c 9.536,0 17.294,-7.757 17.294,-17.292 0,-9.536 -7.758,-17.294 -17.294,-17.294 l -4.923,0 c -8.76,-3.532 -9.811,-19.567 -9.353,-28.476 8.656,-5.958 14.37,-15.89 14.488,-27.141 0,-0.008 0.002,-0.016 0.002,-0.023 0.037,-0.858 4.202,-84.874 41.159,-110.973 9.637,-1.278 17.103,-9.529 17.103,-19.509 0,-8.615 -5.565,-15.937 -13.282,-18.608 z m -6.42,23.267 c -11.727,0 -17.874,5.156 -22.813,9.299 -4.151,3.481 -6.894,5.782 -13.148,5.782 -6.254,0 -8.996,-2.3 -13.148,-5.782 -4.939,-4.143 -11.086,-9.299 -22.813,-9.299 -11.725,0 -17.872,5.156 -22.812,9.299 -4.15,3.481 -6.892,5.782 -13.144,5.782 -6.254,0 -8.995,-2.3 -13.146,-5.782 -4.939,-4.143 -11.086,-9.299 -22.811,-9.299 -2.57,0 -4.66,-2.09 -4.66,-4.66 0,-2.571 2.091,-4.661 4.66,-4.661 6.252,0 8.994,2.3 13.144,5.782 4.939,4.144 11.086,9.301 22.813,9.301 11.726,0 17.872,-5.157 22.811,-9.3 3.841,-3.223 6.481,-5.429 11.808,-5.74 0.07,-0.004 2.641,0 2.74,0.005 5.282,0.326 7.918,2.527 11.743,5.735 4.94,4.143 11.087,9.3 22.815,9.3 11.727,0 17.875,-5.157 22.814,-9.3 4.151,-3.482 6.893,-5.783 13.147,-5.783 2.57,0 4.66,2.091 4.66,4.661 0,2.57 -2.091,4.66 -4.66,4.66 z m -36.523,198.757 c 0,1.241 -1.011,2.25 -2.252,2.25 l -66.284,0 c -1.242,0 -2.252,-1.01 -2.252,-2.25 0,-1.242 1.01,-2.252 2.252,-2.252 l 66.285,0 c 1.241,0 2.251,1.01 2.251,2.252 z m -43.884,-17.294 c 3.319,-6.989 4.626,-15.292 4.8,-22.818 1.212,0.134 2.441,0.209 3.689,0.209 1.248,0 2.479,-0.075 3.691,-0.209 0.174,7.525 1.481,15.829 4.8,22.818 l -16.98,0 z m 8.489,-37.651 c -17.993,0 -18.325,-18.593 -18.328,-18.651 -0.13,-2.968 -2.818,-57.455 -24.43,-95.7 2.043,0.412 4.286,0.66 6.798,0.66 11.726,0 17.872,-5.156 22.811,-9.299 4.15,-3.481 6.892,-5.782 13.145,-5.782 6.254,0 8.997,2.3 13.148,5.782 4.939,4.143 11.087,9.299 22.814,9.299 2.514,0 4.758,-0.248 6.802,-0.661 -21.611,38.244 -24.299,92.732 -24.43,95.701 -0.003,0.058 0.251,18.651 -18.33,18.651 z m -36.178,-223.586 33.922,0 c 4.154,0 7.521,-3.367 7.521,-7.521 0,-4.154 -3.367,-7.521 -7.521,-7.521 l -17.023,0 c -2.396,0 -4.345,-1.95 -4.345,-4.346 0,-2.396 1.949,-4.346 4.345,-4.346 l 38.56,0 c 2.396,0 4.345,1.95 4.345,4.346 0,2.396 -1.949,4.346 -4.345,4.346 -4.154,0 -7.521,3.367 -7.521,7.521 0,4.154 3.367,7.521 7.521,7.521 l 16.899,0 c 2.396,0 4.345,1.949 4.345,4.345 0,2.396 -1.949,4.345 -4.345,4.345 -0.073,0 -0.496,0 -0.637,0 -14.744,0 -27.776,7.452 -35.541,18.783 -7.766,-11.331 -20.798,-18.783 -35.541,-18.783 -0.142,0 -0.565,0 -0.638,0 -2.396,0 -4.345,-1.949 -4.345,-4.345 -0.001,-2.397 1.948,-4.345 4.344,-4.345 z m 36.165,-60.413 c 0.002,0 0.004,0 0.006,0 0.005,0 0.009,0 0.014,0 5.963,0.002 10.814,4.855 10.814,10.819 0,5.966 -4.854,10.819 -10.82,10.819 -5.966,0 -10.819,-4.853 -10.819,-10.819 0,-5.961 4.845,-10.811 10.805,-10.819 z m 63.161,116.952 c -6.356,1.745 -10.514,5.212 -14.044,8.173 -4.151,3.482 -6.893,5.783 -13.147,5.783 -6.254,0 -8.996,-2.3 -13.147,-5.783 -3.691,-3.096 -8.058,-6.755 -14.92,-8.409 -0.244,-1.495 -0.368,-3.015 -0.368,-4.55 0,-15.451 12.57,-28.021 28.021,-28.021 15.451,0 28.021,12.571 28.021,28.021 -10e-4,1.616 -0.146,3.214 -0.416,4.786 z m -98.688,-32.808 c 15.451,0 28.021,12.571 28.021,28.021 0,1.534 -0.124,3.052 -0.367,4.547 -6.868,1.653 -11.237,5.315 -14.929,8.413 -4.15,3.481 -6.892,5.782 -13.144,5.782 -6.253,0 -8.995,-2.3 -13.146,-5.783 -3.528,-2.959 -7.686,-6.428 -14.041,-8.172 -0.27,-1.573 -0.415,-3.171 -0.415,-4.787 0,-15.45 12.57,-28.021 28.021,-28.021 z"
           style="fill:#3f2d20"
           inkscape:connector-curvature="0" />
      </g>
      <g
         id="g3800" />
      <g
         id="g3802" />
      <g
         id="g3804" />
      <g
         id="g3806" />
      <g
         id="g3808" />
      <g
         id="g3810" />
      <g
         id="g3812" />
      <g
         id="g3814" />
      <g
         id="g3816" />
      <g
         id="g3818" />
      <g
         id="g3820" />
      <g
         id="g3822" />
      <g
         id="g3824" />
      <g
         id="g3826" />
      <g
         id="g3828" />
    </g>
  </g>
</svg>
