<?xml version="1.0" encoding="UTF-8" standalone="no"?>
<!-- Created with Inkscape (http://www.inkscape.org/) -->

<svg
   xmlns:dc="http://purl.org/dc/elements/1.1/"
   xmlns:cc="http://creativecommons.org/ns#"
   xmlns:rdf="http://www.w3.org/1999/02/22-rdf-syntax-ns#"
   xmlns:svg="http://www.w3.org/2000/svg"
   xmlns="http://www.w3.org/2000/svg"
   xmlns:sodipodi="http://sodipodi.sourceforge.net/DTD/sodipodi-0.dtd"
   xmlns:inkscape="http://www.inkscape.org/namespaces/inkscape"
   width="32"
   height="32"
   viewBox="0 0 32 32"
   id="svg4171"
   version="1.1"
   inkscape:version="0.91 r13725"
   sodipodi:docname="Kebab.svg"
   inkscape:export-filename="/home/michael/src/bash/poi/icons/Kebab.png"
   inkscape:export-xdpi="109.69"
   inkscape:export-ydpi="109.69">
  <defs
     id="defs4173" />
  <sodipodi:namedview
     id="base"
     pagecolor="#ffffff"
     bordercolor="#666666"
     borderopacity="1.0"
     inkscape:pageopacity="0.0"
     inkscape:pageshadow="2"
     inkscape:zoom="23.59375"
     inkscape:cx="4.9377483"
     inkscape:cy="15.915249"
     inkscape:document-units="px"
     inkscape:current-layer="layer1"
     showgrid="false"
     inkscape:window-width="1440"
     inkscape:window-height="863"
     inkscape:window-x="1680"
     inkscape:window-y="98"
     inkscape:window-maximized="1"
     units="px" />
  <metadata
     id="metadata4176">
    <rdf:RDF>
      <cc:Work
         rdf:about="">
        <dc:format>image/svg+xml</dc:format>
        <dc:type
           rdf:resource="http://purl.org/dc/dcmitype/StillImage" />
        <dc:title />
      </cc:Work>
    </rdf:RDF>
  </metadata>
  <g
     inkscape:label="Ebene 1"
     inkscape:groupmode="layer"
     id="layer1"
     transform="translate(0,-1020.3622)">
    <rect
       style="opacity:1;fill:#ffffff;fill-opacity:1;stroke:#000000;stroke-width:1.99999976;stroke-linecap:butt;stroke-linejoin:round;stroke-miterlimit:4;stroke-dasharray:none;stroke-opacity:1"
       id="rect4179"
       width="30"
       height="30"
       x="1"
       y="1021.3622" />
    <g
       id="g5490"
       transform="matrix(0.06423008,0,0,0.06423008,3.5998109,1023.1089)">
      <g
         id="g5404">
        <g
           id="g5406">
          <path
             id="path5408"
             d="m 195.384,189.89 c 0.029,-0.271 0.081,-0.333 0.081,-0.609 l -0.02,0 c -0.008,0 -0.046,0.471 -0.061,0.609 z"
             style="fill:#ce593f"
             inkscape:connector-curvature="0" />
          <polygon
             id="polygon5410"
             points="143.407,261.416 142.315,254.523 142.297,254.523 "
             style="fill:#ce593f" />
          <path
             id="path5412"
             d="m 217.135,247.957 c -0.303,1.415 -0.991,2.707 -1.949,3.741 0.978,-1.017 1.663,-2.302 1.949,-3.741 z"
             style="fill:#ce593f"
             inkscape:connector-curvature="0" />
          <path
             id="path5414"
             d="m 214.587,252.247 c 0.169,-0.141 0.341,-0.276 0.496,-0.431 -0.152,0.158 -0.332,0.286 -0.496,0.431 z"
             style="fill:#ce593f"
             inkscape:connector-curvature="0" />
        </g>
        <polygon
           id="polygon5416"
           points="124.225,140.523 124.163,140.523 128.098,164.956 "
           style="fill:#ce593f" />
        <g
           id="g5418">
          <path
             id="path5420"
             d="m 286.393,75.681 c 0.151,0.303 0.268,0.625 0.384,0.947 -0.117,-0.322 -0.232,-0.643 -0.384,-0.947 z"
             style="fill:#ce593f"
             inkscape:connector-curvature="0" />
          <path
             id="path5422"
             d="m 285.119,73.817 c -0.208,-0.237 -0.407,-0.479 -0.639,-0.693 0.231,0.213 0.432,0.456 0.639,0.693 z"
             style="fill:#ce593f"
             inkscape:connector-curvature="0" />
          <path
             id="path5424"
             d="m 285.549,74.312 c 0.199,0.265 0.365,0.553 0.534,0.84 -0.169,-0.287 -0.334,-0.575 -0.534,-0.84 z"
             style="fill:#ce593f"
             inkscape:connector-curvature="0" />
          <path
             id="path5426"
             d="m 286.982,77.206 c 0.093,0.328 0.15,0.67 0.206,1.012 -0.056,-0.343 -0.112,-0.683 -0.206,-1.012 z"
             style="fill:#ce593f"
             inkscape:connector-curvature="0" />
          <path
             id="path5428"
             d="m 283.212,72.143 c 0.244,0.155 0.462,0.344 0.689,0.521 -0.228,-0.177 -0.445,-0.366 -0.689,-0.521 z"
             style="fill:#ce593f"
             inkscape:connector-curvature="0" />
          <path
             id="path5430"
             d="m 280.186,70.929 c 0.204,0.04 0.392,0.118 0.591,0.171 -0.199,-0.053 -0.387,-0.131 -0.591,-0.171 z"
             style="fill:#ce593f"
             inkscape:connector-curvature="0" />
          <path
             id="path5432"
             d="m 281.771,71.401 c 0.238,0.096 0.455,0.229 0.683,0.344 -0.228,-0.116 -0.444,-0.249 -0.683,-0.344 z"
             style="fill:#ce593f"
             inkscape:connector-curvature="0" />
        </g>
        <g
           id="g5434">
          <path
             id="path5436"
             d="m 194.039,311.184 c 3.526,0 6.474,-1.999 7.285,-5.993 -0.799,3.349 -3.746,5.993 -7.285,5.993 z"
             style="fill:#ce593f"
             inkscape:connector-curvature="0" />
          <path
             id="path5438"
             d="m 227.943,95.523 56.726,0 2.661,-17.144 c -0.009,-0.172 -0.056,-0.856 -0.075,-0.856 l -148.794,0 c -4.736,0 -8.606,4.288 -8.842,8.967 l 5.941,38.033 24.597,0 c 4.152,0 7.703,3.376 7.703,7.528 l 0,0.472 7.331,0 c 4.152,0 7.518,3.348 7.518,7.5 0,4.152 -3.365,7.5 -7.518,7.5 l -35.994,0 5.387,34 43.364,0 c 4.152,0 7.517,4 7.517,8 l 7.517,0 c 4.152,0 7.517,3.848 7.517,8 0,4.152 -3.365,8 -7.517,8 l -54.718,0 5.363,33 56.171,0 c 4.152,0 8.063,3.608 8.063,7.76 l 0,-0.76 6.971,0 c 4.152,0 7.517,4.348 7.517,8.5 0,4.152 -3.365,8.5 -7.517,8.5 l -67.5,0 5.34,33 31.368,0 c 4.152,0 6.821,3.978 6.821,8.13 l 0,-0.13 8.213,0 c 4.152,0 7.517,3.848 7.517,8 0,4.152 -3.365,8 -7.517,8 l -42.675,0 3.204,20 76.491,0 8.992,-57 -0.006,0 -1.247,8 -10.854,0 c -4.151,0 -7.517,-3.428 -7.517,-7.581 0,-0.12 0.011,-0.419 0.019,-0.419 l -7.536,0 c -4.151,0 -7.517,-3.348 -7.517,-7.5 0,-4.152 3.366,-7.5 7.517,-7.5 l 29.525,0 6.683,-42 -0.029,0 -1.225,8 -34.132,0 c -4.151,0 -7.517,-3.499 -7.517,-7.651 0,-0.073 0.006,-0.349 0.011,-0.349 l -7.528,0 c -4.151,0 -7.517,-3.348 -7.517,-7.5 0,-4.152 3.366,-7.5 7.517,-7.5 l 52.804,0 6.684,-42 -0.051,0 -1.204,7 -16.106,0 c -4.151,0 -7.517,-3.07 -7.517,-7.222 0,-0.025 0.003,0.222 0.004,0.222 l -7.521,0 c -4.151,0 -7.517,-3.848 -7.517,-8 0,-4.152 3.366,-8 7.517,-8 l 34.775,0 6.684,-41.276 -0.074,0.246 -1.18,8.03 -38.054,0 c -4.151,0 -7.517,-3.436 -7.517,-7.588 0,-0.134 -0.131,-1.938 -0.123,-1.938 l 28.895,-0.237 -35.704,0.58 c -4.151,0 -8.103,-2.568 -8.103,-6.72 0,-4.152 3.367,-8.097 7.518,-8.097 z"
             style="fill:#ce593f"
             inkscape:connector-curvature="0" />
          <path
             id="path5440"
             d="m 201.324,305.191 c 0.139,-0.58 0.232,-1.174 0.232,-1.788 l -0.02,0 c -0.025,0.636 -0.099,1.23 -0.212,1.788 z"
             style="fill:#ce593f"
             inkscape:connector-curvature="0" />
        </g>
        <path
           id="path5442"
           d="m 217.189,247.321 c 0.068,-0.412 0.126,-0.553 0.126,-0.98 l -0.02,0 c -0.013,0.001 -0.071,0.745 -0.106,0.98 z"
           style="fill:#ce593f"
           inkscape:connector-curvature="0" />
        <path
           id="path5444"
           d="m 167.633,132.496 c 0.008,-0.138 0.041,-0.137 0.041,-0.276 l -0.02,0 c -0.002,-0.001 -0.017,0.227 -0.021,0.276 z"
           style="fill:#ce593f"
           inkscape:connector-curvature="0" />
        <g
           id="g5446">
          <polygon
             id="polygon5448"
             points="135.748,213.159 133.27,197.523 133.23,197.523 "
             style="fill:#ce593f" />
          <path
             id="path5450"
             d="m 195.242,191.037 c -0.031,0.129 -0.079,0.252 -0.115,0.379 0.037,-0.127 0.084,-0.249 0.115,-0.379 z"
             style="fill:#ce593f"
             inkscape:connector-curvature="0" />
        </g>
        <path
           id="path5452"
           d="m 278.488,55.729 -70.014,0 0,-48.212 C 208.474,3.365 205.109,0 200.957,0 196.806,0 193.44,3.365 193.44,7.517 l 0,48.211 -70.013,0 c -13.178,0 -23.899,10.342 -23.899,23.52 0,0.335 0.082,1.492 0.093,1.556 l 42.358,267.235 c 0.579,3.651 3.727,6.341 7.424,6.341 l 44.037,0 0,40.007 c 0,4.152 3.366,7.517 7.517,7.517 4.152,0 7.517,-3.365 7.517,-7.517 l 0,-40.007 44.038,0 c 3.698,0 6.846,-2.69 7.425,-6.341 L 302.295,80.804 c 0.01,-0.063 0.084,-1.517 0.082,-1.556 -0.204,-13.003 -10.839,-23.519 -23.889,-23.519 z m 6.181,40.242 -56.726,0 c -4.151,0 -7.517,3.365 -7.517,7.517 0,4.152 3.366,7.517 7.517,7.517 l 54.342,0 -6.684,42.17 -34.775,0 c -4.151,0 -7.517,3.365 -7.517,7.517 0,4.152 3.366,7.517 7.517,7.517 l 32.393,0 -6.684,42.168 -52.804,0 c -4.151,0 -7.517,3.365 -7.517,7.517 0,4.152 3.366,7.517 7.517,7.517 l 50.42,0 -6.683,42.168 -29.525,0 c -4.151,0 -7.517,3.365 -7.517,7.517 0,4.152 3.366,7.517 7.517,7.517 l 27.142,0 -8.992,56.733 -90.27,0 -4.459,-28.13 42.675,0 c 4.152,0 7.517,-3.365 7.517,-7.517 0,-4.152 -3.365,-7.517 -7.517,-7.517 l -45.058,0 -6.684,-42.17 67.5,0 c 4.152,0 7.517,-3.365 7.517,-7.517 0,-4.152 -3.365,-7.517 -7.517,-7.517 l -69.884,0 -6.684,-42.168 54.718,0 c 4.152,0 7.517,-3.365 7.517,-7.517 0,-4.152 -3.365,-7.517 -7.517,-7.517 l -57.101,0 -6.684,-42.168 35.994,0 c 4.152,0 7.517,-3.365 7.517,-7.517 0,-4.152 -3.365,-7.517 -7.517,-7.517 l -38.376,0 -7.195,-45.395 c 0.237,-4.678 4.106,-8.415 8.842,-8.415 l 155.061,0 c 4.736,0 8.606,3.737 8.842,8.415 l -2.661,16.792 z"
           style="fill:#3f2d20"
           inkscape:connector-curvature="0" />
      </g>
      <g
         id="g5454" />
      <g
         id="g5456" />
      <g
         id="g5458" />
      <g
         id="g5460" />
      <g
         id="g5462" />
      <g
         id="g5464" />
      <g
         id="g5466" />
      <g
         id="g5468" />
      <g
         id="g5470" />
      <g
         id="g5472" />
      <g
         id="g5474" />
      <g
         id="g5476" />
      <g
         id="g5478" />
      <g
         id="g5480" />
      <g
         id="g5482" />
    </g>
  </g>
</svg>
