<?xml version="1.0" encoding="UTF-8" standalone="no"?>
<!-- Created with Inkscape (http://www.inkscape.org/) -->

<svg
   xmlns:dc="http://purl.org/dc/elements/1.1/"
   xmlns:cc="http://creativecommons.org/ns#"
   xmlns:rdf="http://www.w3.org/1999/02/22-rdf-syntax-ns#"
   xmlns:svg="http://www.w3.org/2000/svg"
   xmlns="http://www.w3.org/2000/svg"
   xmlns:sodipodi="http://sodipodi.sourceforge.net/DTD/sodipodi-0.dtd"
   xmlns:inkscape="http://www.inkscape.org/namespaces/inkscape"
   width="32"
   height="32"
   viewBox="0 0 32 32"
   id="svg4171"
   version="1.1"
   inkscape:version="0.91 r13725"
   sodipodi:docname="Pizza.svg"
   inkscape:export-filename="/home/michael/src/bash/poi/icons/Pizza.png"
   inkscape:export-xdpi="109.69"
   inkscape:export-ydpi="109.69">
  <defs
     id="defs4173" />
  <sodipodi:namedview
     id="base"
     pagecolor="#ffffff"
     bordercolor="#666666"
     borderopacity="1.0"
     inkscape:pageopacity="0.0"
     inkscape:pageshadow="2"
     inkscape:zoom="23.59375"
     inkscape:cx="4.9377483"
     inkscape:cy="15.915249"
     inkscape:document-units="px"
     inkscape:current-layer="layer1"
     showgrid="false"
     inkscape:window-width="1440"
     inkscape:window-height="863"
     inkscape:window-x="1680"
     inkscape:window-y="98"
     inkscape:window-maximized="1"
     units="px" />
  <metadata
     id="metadata4176">
    <rdf:RDF>
      <cc:Work
         rdf:about="">
        <dc:format>image/svg+xml</dc:format>
        <dc:type
           rdf:resource="http://purl.org/dc/dcmitype/StillImage" />
        <dc:title />
      </cc:Work>
    </rdf:RDF>
  </metadata>
  <g
     inkscape:label="Ebene 1"
     inkscape:groupmode="layer"
     id="layer1"
     transform="translate(0,-1020.3622)">
    <rect
       style="opacity:1;fill:#ffffff;fill-opacity:1;stroke:#000000;stroke-width:1.99999976;stroke-linecap:butt;stroke-linejoin:round;stroke-miterlimit:4;stroke-dasharray:none;stroke-opacity:1"
       id="rect4179"
       width="30"
       height="30"
       x="1"
       y="1021.3622" />
    <g
       id="g5989"
       transform="matrix(0.07622559,0,0,0.07622559,3.1505937,1023.5932)">
      <g
         id="g5845">
        <g
           id="g5847">
          <path
             id="path5849"
             d="m 108.884,137.017 c 0.316,-0.712 0.607,-1.433 0.966,-2.126 -0.36,0.693 -0.65,1.415 -0.966,2.126 z"
             style="fill:#fdd44b"
             inkscape:connector-curvature="0" />
          <path
             id="path5851"
             d="m 111.074,132.804 c 0.358,-0.597 0.691,-1.204 1.083,-1.784 -0.392,0.58 -0.725,1.188 -1.083,1.784 z"
             style="fill:#fdd44b"
             inkscape:connector-curvature="0" />
          <path
             id="path5853"
             d="m 107.181,141.633 c 0.264,-0.892 0.51,-1.789 0.839,-2.658 -0.33,0.869 -0.575,1.767 -0.839,2.658 z"
             style="fill:#fdd44b"
             inkscape:connector-curvature="0" />
          <path
             id="path5855"
             d="m 105.852,147.716 c 0.187,-1.512 0.467,-2.998 0.828,-4.458 -0.361,1.46 -0.641,2.946 -0.828,4.458 z"
             style="fill:#fdd44b"
             inkscape:connector-curvature="0" />
          <path
             id="path5857"
             d="m 105.091,150.277 c 0,0.042 0,0.081 0,0.123 0,-0.043 0,-0.082 0,-0.123 z"
             style="fill:#fdd44b"
             inkscape:connector-curvature="0" />
          <path
             id="path5859"
             d="m 125.379,118.309 c -0.389,0.25 -0.732,0.533 -1.11,0.791 0.807,-0.55 1.586,-1.121 2.44,-1.635 11.336,-6.814 25.525,-9.583 39.955,-7.803 14.428,1.781 27.518,7.919 36.856,17.285 9.825,9.854 14.397,22.076 12.873,34.414 -0.856,6.938 -3.535,12.072 -7.964,15.258 -3.729,2.683 -8.136,3.647 -13.078,3.648 -5.307,0 -11.242,-1.114 -17.621,-2.404 -0.048,3.431 0.709,8.451 3.526,15.554 1.966,3.62 10.599,21.016 2.371,33.314 -4.44,6.636 -12.448,9.37 -23.816,9.978 -3.093,0.165 -9.03,-0.616 -9.077,-0.623 -15.917,-2.029 -25.679,-7.74 -28.993,-16.995 -4.991,-13.93 7.614,-28.704 10.4,-31.737 4.459,-6.204 6.415,-10.89 7.204,-14.228 -12.558,-0.583 -23.404,-1.397 -29.55,-8.673 -1.745,-2.064 -2.702,-4.489 -3.702,-7.252 l 0,0.001 -30.665,62.47 c 4.042,-2.055 8.527,-3.145 13.16,-3.145 9.042,0 17.434,4.086 22.99,11.207 4.784,6.132 6.904,13.761 5.95,21.48 -0.953,7.72 -4.85,14.605 -10.983,19.39 -5.166,4.031 -11.351,6.162 -17.894,6.162 -9.042,0 -17.414,-4.085 -22.971,-11.207 -2.983,-3.823 -4.84,-8.167 -5.655,-12.637 0.01,0.055 0.009,0.11 0.019,0.165 L 37.928,296.03 279.075,244.218 c 0.703,-29.48 -17.256,-71.802 -46.974,-109.892 -25.032,-32.082 -55.177,-56.872 -81.279,-67.724 l -25.443,51.707 z m 122.394,60.533 c 3.569,0.298 6.433,3.071 6.845,6.627 3.106,26.861 -8.7,51.498 -31.582,65.905 -1.235,0.777 -2.623,1.156 -4.002,1.156 -2.006,0 -3.991,-0.801 -5.453,-2.339 l -18.177,-19.13 c -1.553,-1.634 -2.29,-3.876 -2.01,-6.112 0.28,-2.235 1.548,-4.227 3.454,-5.427 12.161,-7.655 18.187,-20.233 16.535,-34.508 -0.259,-2.238 0.5,-4.474 2.067,-6.093 1.567,-1.619 3.772,-2.441 6.022,-2.263 l 26.301,2.184 z"
             style="fill:#fdd44b"
             inkscape:connector-curvature="0" />
          <path
             id="path5861"
             d="m 59.581,246.848 c 0.006,0.147 10e-4,0.293 0.009,0.44 -0.008,-0.146 -0.003,-0.293 -0.009,-0.44 z"
             style="fill:#fdd44b"
             inkscape:connector-curvature="0" />
          <path
             id="path5863"
             d="m 118.141,123.987 c -0.456,0.434 -0.872,0.892 -1.305,1.34 0.433,-0.448 0.848,-0.906 1.305,-1.34 z"
             style="fill:#fdd44b"
             inkscape:connector-curvature="0" />
          <path
             id="path5865"
             d="m 113.733,128.912 c 0.395,-0.512 0.77,-1.035 1.192,-1.533 -0.424,0.498 -0.797,1.021 -1.192,1.533 z"
             style="fill:#fdd44b"
             inkscape:connector-curvature="0" />
          <path
             id="path5867"
             d="m 121.798,120.859 c -0.5,0.386 -0.964,0.794 -1.442,1.195 0.478,-0.4 0.942,-0.809 1.442,-1.195 z"
             style="fill:#fdd44b"
             inkscape:connector-curvature="0" />
          <path
             id="path5869"
             d="m 73.157,220.998 c -0.045,0.028 -0.092,0.053 -0.137,0.082 0.045,-0.029 0.092,-0.053 0.137,-0.082 z"
             style="fill:#fdd44b"
             inkscape:connector-curvature="0" />
          <path
             id="path5871"
             d="m 148.286,65.565 c 0.514,0.198 1.029,0.404 1.546,0.612 -0.517,-0.208 -1.032,-0.415 -1.546,-0.612 z"
             style="fill:#fdd44b"
             inkscape:connector-curvature="0" />
          <path
             id="path5873"
             d="m 142.744,63.63 c 0.348,0.109 0.692,0.21 1.042,0.325 -0.35,-0.114 -0.694,-0.217 -1.042,-0.325 z"
             style="fill:#fdd44b"
             inkscape:connector-curvature="0" />
          <path
             id="path5875"
             d="m 59.631,243.674 c 0.018,-0.256 0.034,-0.512 0.058,-0.767 -0.024,0.256 -0.04,0.511 -0.058,0.767 z"
             style="fill:#fdd44b"
             inkscape:connector-curvature="0" />
          <path
             id="path5877"
             d="m 67.96,225.18 c -0.24,0.243 -0.468,0.492 -0.699,0.741 0.23,-0.249 0.459,-0.499 0.699,-0.741 z"
             style="fill:#fdd44b"
             inkscape:connector-curvature="0" />
          <path
             id="path5879"
             d="m 62.716,232.455 c 0.109,-0.217 0.206,-0.439 0.322,-0.653 -0.115,0.215 -0.212,0.436 -0.322,0.653 z"
             style="fill:#fdd44b"
             inkscape:connector-curvature="0" />
          <path
             id="path5881"
             d="m 64.919,228.774 c 0.146,-0.205 0.312,-0.4 0.463,-0.602 -0.152,0.203 -0.316,0.396 -0.463,0.602 z"
             style="fill:#fdd44b"
             inkscape:connector-curvature="0" />
          <path
             id="path5883"
             d="m 61.218,235.944 c 0.095,-0.271 0.202,-0.539 0.305,-0.807 -0.103,0.269 -0.209,0.535 -0.305,0.807 z"
             style="fill:#fdd44b"
             inkscape:connector-curvature="0" />
        </g>
        <g
           id="g5885">
          <path
             id="path5887"
             d="m 194.044,42.737 c 1.638,1.021 3.302,2.099 4.994,3.241 -1.692,-1.141 -3.356,-2.22 -4.994,-3.241 z"
             style="fill:#fdd44b"
             inkscape:connector-curvature="0" />
          <path
             id="path5889"
             d="m 184.43,37.264 c 2.964,1.519 6.054,3.268 9.257,5.253 -3.202,-1.984 -6.293,-3.735 -9.257,-5.253 z"
             style="fill:#fdd44b"
             inkscape:connector-curvature="0" />
          <path
             id="path5891"
             d="m 179.571,34.922 c 1.383,0.618 2.806,1.303 4.254,2.034 -1.448,-0.73 -2.871,-1.417 -4.254,-2.034 z"
             style="fill:#fdd44b"
             inkscape:connector-curvature="0" />
          <path
             id="path5893"
             d="M 238.985,80.205 C 232.989,74.01 227.07,68.376 221.294,63.306 c 5.775,5.069 11.697,10.705 17.691,16.899 z"
             style="fill:#fdd44b"
             inkscape:connector-curvature="0" />
          <path
             id="path5895"
             d="m 175.605,33.282 c 1.264,0.487 2.554,1.013 3.884,1.605 -1.329,-0.592 -2.62,-1.119 -3.884,-1.605 z"
             style="fill:#fdd44b"
             inkscape:connector-curvature="0" />
          <path
             id="path5897"
             d="m 209.994,53.946 c 3.659,2.847 7.404,5.941 11.214,9.284 -3.81,-3.342 -7.554,-6.437 -11.214,-9.284 z"
             style="fill:#fdd44b"
             inkscape:connector-curvature="0" />
          <path
             id="path5899"
             d="m 160.526,29.918 c 0.917,0 1.891,0.073 2.89,0.179 -0.999,-0.106 -1.973,-0.179 -2.89,-0.179 z"
             style="fill:#fdd44b"
             inkscape:connector-curvature="0" />
          <path
             id="path5901"
             d="m 199.144,46.051 c 3.46,2.338 7.027,4.926 10.68,7.763 -3.653,-2.836 -7.221,-5.427 -10.68,-7.763 z"
             style="fill:#fdd44b"
             inkscape:connector-curvature="0" />
          <path
             id="path5903"
             d="m 144.682,48.529 c 1.774,0.5 3.57,1.081 5.377,1.703 -1.808,-0.622 -3.604,-1.203 -5.377,-1.703 z"
             style="fill:#fdd44b"
             inkscape:connector-curvature="0" />
          <path
             id="path5905"
             d="m 155.601,52.32 c -1.267,-0.513 -2.525,-0.995 -3.778,-1.451 1.252,0.456 2.512,0.94 3.778,1.451 z"
             style="fill:#fdd44b"
             inkscape:connector-curvature="0" />
          <path
             id="path5907"
             d="M 312,193.093 C 303.538,167.679 286.69,138.061 264.56,109.697 256.032,98.767 247.439,88.94 238.987,80.207 212.815,56.623 189.388,44.456 175.561,44.456 c -3.003,0 -5.527,0.571 -7.523,1.7 l -4.709,9.57 c -0.039,-0.019 -0.077,-0.035 -0.116,-0.053 26.894,12.955 55.938,37.615 80.743,69.405 31.042,39.785 49.563,83.045 50.135,115.913 l 19.08,-4.099 c 6.249,-6.546 5.858,-22.687 -1.171,-43.799 z"
             style="fill:#fdd44b"
             inkscape:connector-curvature="0" />
          <path
             id="path5909"
             d="m 171.326,31.791 c 1.179,0.362 2.394,0.778 3.641,1.244 -1.247,-0.466 -2.462,-0.882 -3.641,-1.244 z"
             style="fill:#fdd44b"
             inkscape:connector-curvature="0" />
          <path
             id="path5911"
             d="m 157.597,53.141 c 1.358,0.578 2.725,1.195 4.097,1.835 -1.372,-0.64 -2.738,-1.257 -4.097,-1.835 z"
             style="fill:#fdd44b"
             inkscape:connector-curvature="0" />
          <path
             id="path5913"
             d="m 167.634,30.808 c 1.009,0.227 2.05,0.501 3.12,0.817 -1.07,-0.315 -2.112,-0.59 -3.12,-0.817 z"
             style="fill:#fdd44b"
             inkscape:connector-curvature="0" />
          <path
             id="path5915"
             d="m 164.07,30.171 c 0.999,0.128 2.03,0.298 3.105,0.528 -1.075,-0.23 -2.106,-0.4 -3.105,-0.528 z"
             style="fill:#fdd44b"
             inkscape:connector-curvature="0" />
        </g>
        <g
           id="g5917">
          <path
             id="path5919"
             d="m 88.624,231.561 c 0.66,0 1.311,0.054 1.95,0.148 -0.641,-0.088 -1.29,-0.148 -1.95,-0.148 z"
             style="fill:#ce593f"
             inkscape:connector-curvature="0" />
          <path
             id="path5921"
             d="m 90.751,231.739 c 0.617,0.098 1.225,0.229 1.82,0.4 -0.595,-0.172 -1.201,-0.307 -1.82,-0.4 z"
             style="fill:#ce593f"
             inkscape:connector-curvature="0" />
          <path
             id="path5923"
             d="m 91.795,259.333 c -0.334,0.078 -0.664,0.168 -1.004,0.221 0.341,-0.051 0.67,-0.144 1.004,-0.221 z"
             style="fill:#ce593f"
             inkscape:connector-curvature="0" />
          <path
             id="path5925"
             d="m 99.742,236.981 c -1.852,-2.374 -4.361,-4.029 -7.169,-4.842 -1.68,0.494 -3.264,1.295 -4.685,2.404 -6.121,4.777 -7.215,13.643 -2.438,19.767 1.843,2.361 4.335,4.008 7.126,4.826 1.692,-0.493 3.295,-1.27 4.725,-2.386 2.967,-2.314 4.854,-5.645 5.315,-9.378 0.461,-3.734 -0.561,-7.424 -2.874,-10.391 z"
             style="fill:#ce593f"
             inkscape:connector-curvature="0" />
        </g>
        <g
           id="g5927">
          <path
             id="path5929"
             d="m 122.094,155.368 c -0.085,-0.056 -0.182,-0.109 -0.258,-0.167 0.077,0.058 0.174,0.111 0.258,0.167 z"
             style="fill:#ef8829"
             inkscape:connector-curvature="0" />
          <path
             id="path5931"
             d="m 194.972,139.872 c -6.27,-4.322 -13.965,-7.179 -22.309,-8.21 -11.114,-1.37 -21.896,0.676 -30.366,5.767 -7.879,4.735 -12.738,11.557 -13.681,19.208 -0.022,0.176 -0.043,0.37 -0.063,0.575 -0.419,-0.059 -0.825,-0.123 -1.221,-0.19 4.081,0.695 9.514,0.943 14.563,1.171 1.784,0.081 5.531,0.269 5.546,0.27 3.297,0.195 6.19,2.554 6.909,5.939 1.958,9.241 -1.512,20.06 -10.314,32.16 -0.197,0.269 -0.41,0.526 -0.641,0.767 -3.939,4.171 -9.058,12.38 -7.498,16.703 1.204,3.333 7.56,6.013 17.01,7.181 9.436,1.161 16.241,0.106 18.218,-2.832 2.564,-3.814 -0.405,-13.021 -3.222,-18.043 -0.157,-0.279 -0.304,-0.586 -0.425,-0.883 -5.595,-13.875 -6.329,-25.215 -2.183,-33.701 1.513,-3.095 4.871,-4.682 8.102,-4.091 0.03,0.005 3.74,0.74 5.492,1.095 8.428,1.715 17.978,3.655 20.758,1.656 1.166,-0.838 1.643,-3.427 1.824,-4.896 0.837,-6.765 -1.468,-13.643 -6.499,-19.646 z"
             style="fill:#ef8829"
             inkscape:connector-curvature="0" />
          <path
             id="path5933"
             d="m 122.887,155.802 c -0.142,-0.066 -0.289,-0.129 -0.417,-0.199 0.127,0.07 0.275,0.133 0.417,0.199 z"
             style="fill:#ef8829"
             inkscape:connector-curvature="0" />
          <path
             id="path5935"
             d="m 127.245,157.006 c -0.366,-0.063 -0.719,-0.13 -1.062,-0.2 0.342,0.071 0.696,0.137 1.062,0.2 z"
             style="fill:#ef8829"
             inkscape:connector-curvature="0" />
          <path
             id="path5937"
             d="m 126,156.767 c -0.308,-0.066 -0.607,-0.134 -0.892,-0.207 0.285,0.073 0.585,0.141 0.892,0.207 z"
             style="fill:#ef8829"
             inkscape:connector-curvature="0" />
          <path
             id="path5939"
             d="m 123.803,156.17 c -0.195,-0.068 -0.39,-0.135 -0.568,-0.208 0.179,0.072 0.374,0.14 0.568,0.208 z"
             style="fill:#ef8829"
             inkscape:connector-curvature="0" />
          <path
             id="path5941"
             d="m 124.846,156.489 c -0.25,-0.067 -0.494,-0.136 -0.725,-0.209 0.23,0.073 0.476,0.142 0.725,0.209 z"
             style="fill:#ef8829"
             inkscape:connector-curvature="0" />
        </g>
        <path
           id="path5943"
           d="m 239.843,198.972 -6.889,-0.572 c -0.691,13.038 -6.247,24.897 -15.767,33.762 l -5.093,-5.36 7.926,8.342 c 13.189,-10.318 20.277,-25.11 20.057,-41.854 0.026,1.923 -0.066,3.814 -0.234,5.682 z"
           style="fill:#84bd93"
           inkscape:connector-curvature="0" />
        <path
           id="path5945"
           d="M 276.413,100.449 C 236.482,49.27 189.911,14.884 160.526,14.884 c -7.098,0 -13.16,1.921 -18.018,5.711 -0.895,0.698 -1.619,1.59 -2.12,2.607 L 0.773,306.933 c -1.272,2.586 -0.955,5.671 0.818,7.943 1.442,1.848 3.639,2.894 5.926,2.894 0.525,0 1.054,-0.055 1.58,-0.168 l 309.165,-66.426 c 1.109,-0.239 2.15,-0.725 3.045,-1.423 28.906,-22.554 -1.555,-93.759 -44.894,-149.304 z M 137.92,62.27 c 28.61,6.916 64.902,34.531 94.181,72.056 29.718,38.09 47.677,80.412 46.974,109.892 L 21.116,299.642 137.92,62.27 Z m 175.249,174.622 -19.079,4.099 C 293.517,208.123 274.997,164.863 243.955,125.078 213.319,85.815 176.213,57.414 144.682,48.529 l 8.322,-16.911 c 1.997,-1.13 4.52,-1.7 7.523,-1.7 20.766,0 63.169,27.403 104.034,79.778 22.13,28.364 38.977,57.982 47.44,83.396 7.028,21.113 7.419,37.254 1.168,43.8 z"
           style="fill:#3f2d20"
           inkscape:connector-curvature="0" />
        <path
           id="path5947"
           d="m 88.624,216.527 c -6.543,0 -12.732,2.131 -17.901,6.162 -12.658,9.877 -14.921,28.211 -5.044,40.869 5.556,7.123 13.929,11.207 22.972,11.207 6.542,0 12.73,-2.131 17.896,-6.161 6.133,-4.784 10.035,-11.67 10.988,-19.39 0.953,-7.719 -1.157,-15.347 -5.941,-21.48 -5.555,-7.122 -13.927,-11.207 -22.97,-11.207 z m 13.991,30.844 c -0.46,3.733 -2.348,7.064 -5.315,9.378 -2.5,1.951 -5.491,2.981 -8.649,2.981 -4.378,0 -8.431,-1.976 -11.118,-5.421 -4.778,-6.123 -3.683,-14.99 2.438,-19.767 2.501,-1.951 5.492,-2.982 8.653,-2.982 4.377,0 8.429,1.976 11.117,5.421 2.314,2.967 3.336,6.657 2.874,10.39 z"
           style="fill:#3f2d20"
           inkscape:connector-curvature="0" />
        <path
           id="path5949"
           d="m 177.729,177.863 c 6.379,1.29 12.314,2.404 17.621,2.404 4.943,-0.001 9.349,-0.965 13.078,-3.648 4.428,-3.186 7.108,-8.32 7.964,-15.257 1.524,-12.338 -3.048,-24.56 -12.873,-34.414 -9.338,-9.365 -22.427,-15.503 -36.855,-17.285 -14.429,-1.78 -28.618,0.989 -39.954,7.803 -11.926,7.169 -19.333,17.912 -20.857,30.25 -0.856,6.938 0.494,12.569 4.016,16.737 6.147,7.276 16.917,8.09 29.475,8.673 -0.789,3.339 -2.744,8.024 -7.204,14.229 -2.786,3.033 -15.391,17.807 -10.401,31.737 3.315,9.255 13.077,14.966 28.994,16.995 0.047,0.007 5.984,0.788 9.077,0.622 11.368,-0.608 19.376,-3.342 23.816,-9.978 8.228,-12.299 -0.405,-29.695 -2.371,-33.314 -2.817,-7.104 -3.574,-12.123 -3.526,-15.554 z m -6.604,40.518 c -1.977,2.937 -8.782,3.992 -18.218,2.832 -9.45,-1.168 -15.806,-3.848 -17.01,-7.18 -1.56,-4.323 3.559,-12.532 7.499,-16.703 0.23,-0.242 0.443,-0.498 0.64,-0.767 8.802,-12.1 12.272,-22.919 10.314,-32.16 -0.718,-3.386 -3.612,-5.745 -6.908,-5.94 -0.015,-0.001 -3.762,-0.189 -5.546,-0.27 -8.592,-0.387 -18.331,-0.825 -20.543,-3.442 -0.926,-1.096 -0.759,-3.723 -0.577,-5.192 0.944,-7.65 5.802,-14.473 13.681,-19.208 8.47,-5.091 19.253,-7.137 30.366,-5.767 11.111,1.372 21.073,5.981 28.05,12.979 6.491,6.509 9.545,14.307 8.599,21.957 -0.181,1.469 -0.659,4.058 -1.824,4.896 -2.78,1.999 -12.331,0.059 -20.758,-1.656 -1.752,-0.355 -5.462,-1.09 -5.492,-1.095 -3.231,-0.591 -6.588,0.995 -8.101,4.09 -4.146,8.486 -3.412,19.825 2.183,33.701 0.12,0.297 0.268,0.604 0.425,0.883 2.814,5.021 5.784,14.227 3.22,18.042 z"
           style="fill:#3f2d20"
           inkscape:connector-curvature="0" />
        <path
           id="path5951"
           d="m 247.773,178.842 -26.299,-2.184 c -2.25,-0.178 -4.455,0.644 -6.023,2.263 -1.567,1.619 -2.326,3.854 -2.066,6.093 1.651,14.276 -4.375,26.853 -16.536,34.508 -1.907,1.2 -3.174,3.192 -3.454,5.428 -0.28,2.236 0.457,4.478 2.01,6.112 l 18.177,19.13 c 1.462,1.539 3.446,2.339 5.453,2.339 1.378,0 2.767,-0.379 4.001,-1.156 22.882,-14.407 34.688,-39.044 31.582,-65.905 -0.413,-3.557 -3.277,-6.33 -6.845,-6.628 z m -27.752,56.302 -7.926,-8.342 c 9.984,-8.935 15.804,-21.083 16.514,-34.464 l 11.469,0.952 c 0.22,16.744 -6.869,31.535 -20.057,41.854 z"
           style="fill:#3f2d20"
           inkscape:connector-curvature="0" />
      </g>
      <g
         id="g5953" />
      <g
         id="g5955" />
      <g
         id="g5957" />
      <g
         id="g5959" />
      <g
         id="g5961" />
      <g
         id="g5963" />
      <g
         id="g5965" />
      <g
         id="g5967" />
      <g
         id="g5969" />
      <g
         id="g5971" />
      <g
         id="g5973" />
      <g
         id="g5975" />
      <g
         id="g5977" />
      <g
         id="g5979" />
      <g
         id="g5981" />
    </g>
  </g>
</svg>
