<?xml version="1.0" encoding="UTF-8" standalone="no"?>
<!-- Created with Inkscape (http://www.inkscape.org/) -->

<svg
   xmlns:dc="http://purl.org/dc/elements/1.1/"
   xmlns:cc="http://creativecommons.org/ns#"
   xmlns:rdf="http://www.w3.org/1999/02/22-rdf-syntax-ns#"
   xmlns:svg="http://www.w3.org/2000/svg"
   xmlns="http://www.w3.org/2000/svg"
   xmlns:sodipodi="http://sodipodi.sourceforge.net/DTD/sodipodi-0.dtd"
   xmlns:inkscape="http://www.inkscape.org/namespaces/inkscape"
   width="32"
   height="32"
   viewBox="0 0 32 32"
   id="svg4171"
   version="1.1"
   inkscape:version="0.91 r13725"
   sodipodi:docname="Traffic lights.svg"
   inkscape:export-filename="/home/michael/src/bash/poi/icons/Traffic lights.png"
   inkscape:export-xdpi="109.69"
   inkscape:export-ydpi="109.69">
  <defs
     id="defs4173" />
  <sodipodi:namedview
     id="base"
     pagecolor="#ffffff"
     bordercolor="#666666"
     borderopacity="1.0"
     inkscape:pageopacity="0.0"
     inkscape:pageshadow="2"
     inkscape:zoom="23.59375"
     inkscape:cx="4.9377483"
     inkscape:cy="15.915249"
     inkscape:document-units="px"
     inkscape:current-layer="layer1"
     showgrid="false"
     inkscape:window-width="1440"
     inkscape:window-height="863"
     inkscape:window-x="1680"
     inkscape:window-y="98"
     inkscape:window-maximized="1"
     units="px" />
  <metadata
     id="metadata4176">
    <rdf:RDF>
      <cc:Work
         rdf:about="">
        <dc:format>image/svg+xml</dc:format>
        <dc:type
           rdf:resource="http://purl.org/dc/dcmitype/StillImage" />
        <dc:title />
      </cc:Work>
    </rdf:RDF>
  </metadata>
  <g
     inkscape:label="Ebene 1"
     inkscape:groupmode="layer"
     id="layer1"
     transform="translate(0,-1020.3622)">
    <rect
       style="opacity:1;fill:#ffffff;fill-opacity:1;stroke:#ff0000;stroke-width:1.99999976;stroke-linecap:butt;stroke-linejoin:round;stroke-miterlimit:4;stroke-dasharray:none;stroke-opacity:1"
       id="rect4179"
       width="30"
       height="30"
       x="1"
       y="1021.3622" />
    <g
       id="g3"
       style="fill:#ff0000;fill-opacity:1"
       transform="matrix(0.02762593,0,0,0.02762593,4.2710429,1024.5867)">
      <g
         id="g5"
         style="fill:#ff0000;fill-opacity:1">
        <path
           inkscape:connector-curvature="0"
           d="m 247.111,610.652 -98.61,0 c -8.392,0 -15.165,7.066 -14.57,15.438 3.521,49.571 100.078,139.338 122.949,159.948 3.072,2.768 4.824,6.705 4.824,10.84 l 0,8.817 c 0,33.944 27.517,61.461 61.461,61.461 l 220.81,0 c 33.948,0 61.47,-27.521 61.47,-61.47 l 0,-8.808 c 0,-4.135 1.752,-8.072 4.824,-10.84 22.871,-20.61 119.427,-110.377 122.948,-159.948 0.596,-8.371 -6.178,-15.438 -14.569,-15.438 l -98.603,0 c -8.059,0 -14.592,-6.533 -14.592,-14.592 l 0,-66.103 c 0,-4.135 1.752,-8.072 4.824,-10.84 22.87,-20.61 119.424,-110.374 122.948,-159.939 0.595,-8.37 -6.179,-15.438 -14.57,-15.438 l -98.61,0 c -8.059,0 -14.592,-6.533 -14.592,-14.592 l 0,-66.102 c 0,-4.135 1.752,-8.072 4.824,-10.84 22.871,-20.61 119.427,-110.377 122.949,-159.948 0.595,-8.371 -6.179,-15.438 -14.57,-15.438 l -98.61,0 c -8.059,0 -14.592,-6.533 -14.592,-14.592 l 0,-0.768 C 605.454,27.518 577.938,0 543.992,0 L 323.164,0 C 289.22,0 261.702,27.517 261.702,61.462 l 0,0.768 c 0,8.059 -6.533,14.592 -14.592,14.592 l -98.61,0 c -8.392,0 -15.165,7.067 -14.57,15.438 3.521,49.571 100.078,139.338 122.949,159.948 3.072,2.768 4.824,6.705 4.824,10.84 l 0,66.102 c 0,8.059 -6.533,14.592 -14.592,14.592 l -98.61,0 c -8.392,0 -15.165,7.067 -14.57,15.438 3.524,49.566 100.078,139.329 122.948,159.939 3.072,2.768 4.824,6.705 4.824,10.84 l 0,66.103 c -10e-4,8.057 -6.534,14.59 -14.592,14.59 z M 434.103,74.082 c 53.213,0 96.35,43.137 96.35,96.35 0,53.213 -43.137,96.35 -96.35,96.35 -53.213,0 -96.351,-43.137 -96.351,-96.35 0,-53.213 43.138,-96.35 96.351,-96.35 z m 0,263.668 c 53.213,0 96.35,43.137 96.35,96.351 0,53.213 -43.137,96.35 -96.35,96.35 -53.213,0 -96.351,-43.137 -96.351,-96.351 0,-53.213 43.138,-96.35 96.351,-96.35 z m 0,263.658 c 53.213,0 96.35,43.137 96.35,96.35 0,53.213 -43.137,96.351 -96.35,96.351 -53.213,0 -96.351,-43.138 -96.351,-96.351 0,-53.213 43.138,-96.35 96.351,-96.35 z"
           id="path7"
           style="fill:#ff0000;fill-opacity:1" />
      </g>
    </g>
    <g
       id="g9"
       transform="matrix(0.02762593,0,0,0.02762593,4.2710429,1024.5867)" />
    <g
       id="g11"
       transform="matrix(0.02762593,0,0,0.02762593,4.2710429,1024.5867)" />
    <g
       id="g13"
       transform="matrix(0.02762593,0,0,0.02762593,4.2710429,1024.5867)" />
    <g
       id="g15"
       transform="matrix(0.02762593,0,0,0.02762593,4.2710429,1024.5867)" />
    <g
       id="g17"
       transform="matrix(0.02762593,0,0,0.02762593,4.2710429,1024.5867)" />
    <g
       id="g19"
       transform="matrix(0.02762593,0,0,0.02762593,4.2710429,1024.5867)" />
    <g
       id="g21"
       transform="matrix(0.02762593,0,0,0.02762593,4.2710429,1024.5867)" />
    <g
       id="g23"
       transform="matrix(0.02762593,0,0,0.02762593,4.2710429,1024.5867)" />
    <g
       id="g25"
       transform="matrix(0.02762593,0,0,0.02762593,4.2710429,1024.5867)" />
    <g
       id="g27"
       transform="matrix(0.02762593,0,0,0.02762593,4.2710429,1024.5867)" />
    <g
       id="g29"
       transform="matrix(0.02762593,0,0,0.02762593,4.2710429,1024.5867)" />
    <g
       id="g31"
       transform="matrix(0.02762593,0,0,0.02762593,4.2710429,1024.5867)" />
    <g
       id="g33"
       transform="matrix(0.02762593,0,0,0.02762593,4.2710429,1024.5867)" />
    <g
       id="g35"
       transform="matrix(0.02762593,0,0,0.02762593,4.2710429,1024.5867)" />
    <g
       id="g37"
       transform="matrix(0.02762593,0,0,0.02762593,4.2710429,1024.5867)" />
  </g>
</svg>
